<?xml version="1.0" encoding="utf-8"?>
<svg version="1.1" xmlns:xlink="http://www.w3.org/1999/xlink" width="12px" height="12px" viewBox="1897 387  12 12" xmlns="http://www.w3.org/2000/svg">
  <path d="M 1903 387  C 1906.36 387  1909 389.64  1909 393  C 1909 396.36  1906.36 399  1903 399  C 1899.64 399  1897 396.36  1897 393  C 1897 389.64  1899.64 387  1903 387  Z " fill-rule="nonzero" fill="#f0f0f0" stroke="none" />
  <path d="M 1903 387.5  C 1906.08 387.5  1908.5 389.92  1908.5 393  C 1908.5 396.08  1906.08 398.5  1903 398.5  C 1899.92 398.5  1897.5 396.08  1897.5 393  C 1897.5 389.92  1899.92 387.5  1903 387.5  Z " stroke-width="1" stroke="#797979" fill="none" />
  <path d="M 1903 396  C 1901.32 396  1900 394.68  1900 393  C 1900 391.32  1901.32 390  1903 390  C 1904.68 390  1906 391.32  1906 393  C 1906 394.68  1904.68 396  1903 396  " fill-rule="nonzero" fill="#797979" stroke="none" />
</svg>