<?xml version="1.0" encoding="utf-8"?>
<svg version="1.1" xmlns:xlink="http://www.w3.org/1999/xlink" width="12px" height="12px" viewBox="1842 368  12 12" xmlns="http://www.w3.org/2000/svg">
  <path d="M 1848 368  C 1851.36 368  1854 370.64  1854 374  C 1854 377.36  1851.36 380  1848 380  C 1844.64 380  1842 377.36  1842 374  C 1842 370.64  1844.64 368  1848 368  Z " fill-rule="nonzero" fill="#f0f0f0" stroke="none" />
  <path d="M 1848 368.5  C 1851.08 368.5  1853.5 370.92  1853.5 374  C 1853.5 377.08  1851.08 379.5  1848 379.5  C 1844.92 379.5  1842.5 377.08  1842.5 374  C 1842.5 370.92  1844.92 368.5  1848 368.5  Z " stroke-width="1" stroke="#797979" fill="none" />
  <path d="M 1848 377  C 1846.32 377  1845 375.68  1845 374  C 1845 372.32  1846.32 371  1848 371  C 1849.68 371  1851 372.32  1851 374  C 1851 375.68  1849.68 377  1848 377  " fill-rule="nonzero" fill="#797979" stroke="none" />
</svg>