<?xml version="1.0" encoding="utf-8"?>
<svg version="1.1" xmlns:xlink="http://www.w3.org/1999/xlink" width="40px" height="33px" xmlns="http://www.w3.org/2000/svg">
  <g transform="matrix(1 0 0 1 -837 -174 )">
    <path d="M 837 174  L 877 174  L 877 207  L 837 207  L 837 174  " fill-rule="nonzero" fill="#cccccc" stroke="none" />
    <path d="M 839 176  L 875 176  L 875 205  L 839 205  L 839 176  " fill-rule="nonzero" fill="#ffffff" stroke="none" />
    <path d="M 860.275 183.9  C 858.889 183.9  857.8 182.811  857.8 181.425  C 857.8 180.039  858.889 178.95  860.275 178.95  C 861.661 178.95  862.75 180.039  862.75 181.425  C 862.75 182.811  861.661 183.9  860.275 183.9  " fill-rule="nonzero" fill="#cccccc" stroke="none" />
    <path d="M 840 204  L 840 189.15  L 848.5 182.4  L 860.4 190.635  L 867.2 186.45  L 874 190.635  L 874 204  L 840 204  " fill-rule="nonzero" fill="#169bd5" stroke="none" />
  </g>
</svg>