<?xml version="1.0" encoding="utf-8"?>
<svg version="1.1" xmlns:xlink="http://www.w3.org/1999/xlink" width="92px" height="97px" xmlns="http://www.w3.org/2000/svg">
  <g transform="matrix(1 0 0 1 -54 -760 )">
    <path d="M 54 760  L 146 760  L 146 857  L 54 857  L 54 760  " fill-rule="nonzero" fill="#cccccc" stroke="none" />
    <path d="M 60 766  L 140 766  L 140 851  L 60 851  L 60 766  " fill-rule="nonzero" fill="#ffffff" stroke="none" />
    <path d="M 108.74 788.35  C 104.876 788.35  101.84 785.314  101.84 781.45  C 101.84 777.586  104.876 774.55  108.74 774.55  C 112.604 774.55  115.64 777.586  115.64 781.45  C 115.64 785.314  112.604 788.35  108.74 788.35  " fill-rule="nonzero" fill="#cccccc" stroke="none" />
    <path d="M 63 849  L 63 805  L 81.75 785  L 108 801  L 123 797  L 138 801  L 138 849  L 63 849  " fill-rule="nonzero" fill="#169bd5" stroke="none" />
  </g>
</svg>