<?xml version="1.0" encoding="utf-8"?>
<svg version="1.1" xmlns:xlink="http://www.w3.org/1999/xlink" width="12px" height="12px" viewBox="1438 832  12 12" xmlns="http://www.w3.org/2000/svg">
  <path d="M 1444 832  C 1447.36 832  1450 834.64  1450 838  C 1450 841.36  1447.36 844  1444 844  C 1440.64 844  1438 841.36  1438 838  C 1438 834.64  1440.64 832  1444 832  Z " fill-rule="nonzero" fill="#f0f0f0" stroke="none" />
  <path d="M 1444 832.5  C 1447.08 832.5  1449.5 834.92  1449.5 838  C 1449.5 841.08  1447.08 843.5  1444 843.5  C 1440.92 843.5  1438.5 841.08  1438.5 838  C 1438.5 834.92  1440.92 832.5  1444 832.5  Z " stroke-width="1" stroke="#797979" fill="none" />
  <path d="M 1444 841  C 1442.32 841  1441 839.68  1441 838  C 1441 836.32  1442.32 835  1444 835  C 1445.68 835  1447 836.32  1447 838  C 1447 839.68  1445.68 841  1444 841  " fill-rule="nonzero" fill="#797979" stroke="none" />
</svg>