<?xml version="1.0" encoding="utf-8"?>
<svg version="1.1" xmlns:xlink="http://www.w3.org/1999/xlink" width="12px" height="12px" viewBox="1323 700  12 12" xmlns="http://www.w3.org/2000/svg">
  <path d="M 1329 700  C 1332.36 700  1335 702.64  1335 706  C 1335 709.36  1332.36 712  1329 712  C 1325.64 712  1323 709.36  1323 706  C 1323 702.64  1325.64 700  1329 700  Z " fill-rule="nonzero" fill="#ffffff" stroke="none" />
  <path d="M 1329 700.5  C 1332.08 700.5  1334.5 702.92  1334.5 706  C 1334.5 709.08  1332.08 711.5  1329 711.5  C 1325.92 711.5  1323.5 709.08  1323.5 706  C 1323.5 702.92  1325.92 700.5  1329 700.5  Z " stroke-width="1" stroke="#797979" fill="none" />
  <path d="M 1329 709  C 1327.32 709  1326 707.68  1326 706  C 1326 704.32  1327.32 703  1329 703  C 1330.68 703  1332 704.32  1332 706  C 1332 707.68  1330.68 709  1329 709  " fill-rule="nonzero" fill="#797979" stroke="none" />
</svg>