<?xml version="1.0" encoding="utf-8"?>
<svg version="1.1" xmlns:xlink="http://www.w3.org/1999/xlink" width="12px" height="12px" viewBox="374 269  12 12" xmlns="http://www.w3.org/2000/svg">
  <path d="M 380 269  C 383.36 269  386 271.64  386 275  C 386 278.36  383.36 281  380 281  C 376.64 281  374 278.36  374 275  C 374 271.64  376.64 269  380 269  Z " fill-rule="nonzero" fill="#f0f0f0" stroke="none" />
  <path d="M 380 269.5  C 383.08 269.5  385.5 271.92  385.5 275  C 385.5 278.08  383.08 280.5  380 280.5  C 376.92 280.5  374.5 278.08  374.5 275  C 374.5 271.92  376.92 269.5  380 269.5  Z " stroke-width="1" stroke="#797979" fill="none" />
  <path d="M 380 278  C 378.32 278  377 276.68  377 275  C 377 273.32  378.32 272  380 272  C 381.68 272  383 273.32  383 275  C 383 276.68  381.68 278  380 278  " fill-rule="nonzero" fill="#797979" stroke="none" />
</svg>