<?xml version="1.0" encoding="utf-8"?>
<svg version="1.1" xmlns:xlink="http://www.w3.org/1999/xlink" width="12px" height="12px" viewBox="851 306  12 12" xmlns="http://www.w3.org/2000/svg">
  <path d="M 857 306  C 860.36 306  863 308.64  863 312  C 863 315.36  860.36 318  857 318  C 853.64 318  851 315.36  851 312  C 851 308.64  853.64 306  857 306  Z " fill-rule="nonzero" fill="#f0f0f0" stroke="none" />
  <path d="M 857 306.5  C 860.08 306.5  862.5 308.92  862.5 312  C 862.5 315.08  860.08 317.5  857 317.5  C 853.92 317.5  851.5 315.08  851.5 312  C 851.5 308.92  853.92 306.5  857 306.5  Z " stroke-width="1" stroke="#797979" fill="none" />
  <path d="M 857 315  C 855.32 315  854 313.68  854 312  C 854 310.32  855.32 309  857 309  C 858.68 309  860 310.32  860 312  C 860 313.68  858.68 315  857 315  " fill-rule="nonzero" fill="#797979" stroke="none" />
</svg>