<?xml version="1.0" encoding="utf-8"?>
<svg version="1.1" xmlns:xlink="http://www.w3.org/1999/xlink" width="12px" height="12px" viewBox="489 353  12 12" xmlns="http://www.w3.org/2000/svg">
  <path d="M 495 353  C 498.36 353  501 355.64  501 359  C 501 362.36  498.36 365  495 365  C 491.64 365  489 362.36  489 359  C 489 355.64  491.64 353  495 353  Z " fill-rule="nonzero" fill="#ffffff" stroke="none" />
  <path d="M 495 353.5  C 498.08 353.5  500.5 355.92  500.5 359  C 500.5 362.08  498.08 364.5  495 364.5  C 491.92 364.5  489.5 362.08  489.5 359  C 489.5 355.92  491.92 353.5  495 353.5  Z " stroke-width="1" stroke="#797979" fill="none" />
  <path d="M 495 362  C 493.32 362  492 360.68  492 359  C 492 357.32  493.32 356  495 356  C 496.68 356  498 357.32  498 359  C 498 360.68  496.68 362  495 362  " fill-rule="nonzero" fill="#797979" stroke="none" />
</svg>