<?xml version="1.0" encoding="utf-8"?>
<svg version="1.1" xmlns:xlink="http://www.w3.org/1999/xlink" width="12px" height="12px" viewBox="1438 407  12 12" xmlns="http://www.w3.org/2000/svg">
  <path d="M 1444 407  C 1447.36 407  1450 409.64  1450 413  C 1450 416.36  1447.36 419  1444 419  C 1440.64 419  1438 416.36  1438 413  C 1438 409.64  1440.64 407  1444 407  Z " fill-rule="nonzero" fill="#f0f0f0" stroke="none" />
  <path d="M 1444 407.5  C 1447.08 407.5  1449.5 409.92  1449.5 413  C 1449.5 416.08  1447.08 418.5  1444 418.5  C 1440.92 418.5  1438.5 416.08  1438.5 413  C 1438.5 409.92  1440.92 407.5  1444 407.5  Z " stroke-width="1" stroke="#797979" fill="none" />
  <path d="M 1444 416  C 1442.32 416  1441 414.68  1441 413  C 1441 411.32  1442.32 410  1444 410  C 1445.68 410  1447 411.32  1447 413  C 1447 414.68  1445.68 416  1444 416  " fill-rule="nonzero" fill="#797979" stroke="none" />
</svg>