<?xml version="1.0" encoding="utf-8"?>
<svg version="1.1" xmlns:xlink="http://www.w3.org/1999/xlink" width="12px" height="12px" viewBox="943 385  12 12" xmlns="http://www.w3.org/2000/svg">
  <path d="M 949 385  C 952.36 385  955 387.64  955 391  C 955 394.36  952.36 397  949 397  C 945.64 397  943 394.36  943 391  C 943 387.64  945.64 385  949 385  Z " fill-rule="nonzero" fill="#f0f0f0" stroke="none" />
  <path d="M 949 385.5  C 952.08 385.5  954.5 387.92  954.5 391  C 954.5 394.08  952.08 396.5  949 396.5  C 945.92 396.5  943.5 394.08  943.5 391  C 943.5 387.92  945.92 385.5  949 385.5  Z " stroke-width="1" stroke="#797979" fill="none" />
  <path d="M 949 394  C 947.32 394  946 392.68  946 391  C 946 389.32  947.32 388  949 388  C 950.68 388  952 389.32  952 391  C 952 392.68  950.68 394  949 394  " fill-rule="nonzero" fill="#797979" stroke="none" />
</svg>