<?xml version="1.0" encoding="utf-8"?>
<svg version="1.1" xmlns:xlink="http://www.w3.org/1999/xlink" width="12px" height="12px" viewBox="839 418  12 12" xmlns="http://www.w3.org/2000/svg">
  <path d="M 845 418  C 848.36 418  851 420.64  851 424  C 851 427.36  848.36 430  845 430  C 841.64 430  839 427.36  839 424  C 839 420.64  841.64 418  845 418  Z " fill-rule="nonzero" fill="#f0f0f0" stroke="none" />
  <path d="M 845 418.5  C 848.08 418.5  850.5 420.92  850.5 424  C 850.5 427.08  848.08 429.5  845 429.5  C 841.92 429.5  839.5 427.08  839.5 424  C 839.5 420.92  841.92 418.5  845 418.5  Z " stroke-width="1" stroke="#797979" fill="none" />
  <path d="M 845 427  C 843.32 427  842 425.68  842 424  C 842 422.32  843.32 421  845 421  C 846.68 421  848 422.32  848 424  C 848 425.68  846.68 427  845 427  " fill-rule="nonzero" fill="#797979" stroke="none" />
</svg>