<?xml version="1.0" encoding="utf-8"?>
<svg version="1.1" xmlns:xlink="http://www.w3.org/1999/xlink" width="12px" height="12px" viewBox="489 790  12 12" xmlns="http://www.w3.org/2000/svg">
  <path d="M 495 790  C 498.36 790  501 792.64  501 796  C 501 799.36  498.36 802  495 802  C 491.64 802  489 799.36  489 796  C 489 792.64  491.64 790  495 790  Z " fill-rule="nonzero" fill="#f0f0f0" stroke="none" />
  <path d="M 495 790.5  C 498.08 790.5  500.5 792.92  500.5 796  C 500.5 799.08  498.08 801.5  495 801.5  C 491.92 801.5  489.5 799.08  489.5 796  C 489.5 792.92  491.92 790.5  495 790.5  Z " stroke-width="1" stroke="#797979" fill="none" />
  <path d="M 495 799  C 493.32 799  492 797.68  492 796  C 492 794.32  493.32 793  495 793  C 496.68 793  498 794.32  498 796  C 498 797.68  496.68 799  495 799  " fill-rule="nonzero" fill="#797979" stroke="none" />
</svg>