<?xml version="1.0" encoding="utf-8"?>
<svg version="1.1" xmlns:xlink="http://www.w3.org/1999/xlink" width="12px" height="12px" viewBox="1334 407  12 12" xmlns="http://www.w3.org/2000/svg">
  <path d="M 1340 407  C 1343.36 407  1346 409.64  1346 413  C 1346 416.36  1343.36 419  1340 419  C 1336.64 419  1334 416.36  1334 413  C 1334 409.64  1336.64 407  1340 407  Z " fill-rule="nonzero" fill="#f0f0f0" stroke="none" />
  <path d="M 1340 407.5  C 1343.08 407.5  1345.5 409.92  1345.5 413  C 1345.5 416.08  1343.08 418.5  1340 418.5  C 1336.92 418.5  1334.5 416.08  1334.5 413  C 1334.5 409.92  1336.92 407.5  1340 407.5  Z " stroke-width="1" stroke="#797979" fill="none" />
  <path d="M 1340 416  C 1338.32 416  1337 414.68  1337 413  C 1337 411.32  1338.32 410  1340 410  C 1341.68 410  1343 411.32  1343 413  C 1343 414.68  1341.68 416  1340 416  " fill-rule="nonzero" fill="#797979" stroke="none" />
</svg>