<?xml version="1.0" encoding="utf-8"?>
<svg version="1.1" xmlns:xlink="http://www.w3.org/1999/xlink" width="12px" height="12px" viewBox="955 698  12 12" xmlns="http://www.w3.org/2000/svg">
  <path d="M 961 698  C 964.36 698  967 700.64  967 704  C 967 707.36  964.36 710  961 710  C 957.64 710  955 707.36  955 704  C 955 700.64  957.64 698  961 698  Z " fill-rule="nonzero" fill="#f0f0f0" stroke="none" />
  <path d="M 961 698.5  C 964.08 698.5  966.5 700.92  966.5 704  C 966.5 707.08  964.08 709.5  961 709.5  C 957.92 709.5  955.5 707.08  955.5 704  C 955.5 700.92  957.92 698.5  961 698.5  Z " stroke-width="1" stroke="#797979" fill="none" />
  <path d="M 961 707  C 959.32 707  958 705.68  958 704  C 958 702.32  959.32 701  961 701  C 962.68 701  964 702.32  964 704  C 964 705.68  962.68 707  961 707  " fill-rule="nonzero" fill="#797979" stroke="none" />
</svg>