<?xml version="1.0" encoding="utf-8"?>
<svg version="1.1" xmlns:xlink="http://www.w3.org/1999/xlink" width="12px" height="12px" viewBox="385 353  12 12" xmlns="http://www.w3.org/2000/svg">
  <path d="M 391 353  C 394.36 353  397 355.64  397 359  C 397 362.36  394.36 365  391 365  C 387.64 365  385 362.36  385 359  C 385 355.64  387.64 353  391 353  Z " fill-rule="nonzero" fill="#ffffff" stroke="none" />
  <path d="M 391 353.5  C 394.08 353.5  396.5 355.92  396.5 359  C 396.5 362.08  394.08 364.5  391 364.5  C 387.92 364.5  385.5 362.08  385.5 359  C 385.5 355.92  387.92 353.5  391 353.5  Z " stroke-width="1" stroke="#797979" fill="none" />
  <path d="M 391 362  C 389.32 362  388 360.68  388 359  C 388 357.32  389.32 356  391 356  C 392.68 356  394 357.32  394 359  C 394 360.68  392.68 362  391 362  " fill-rule="nonzero" fill="#797979" stroke="none" />
</svg>