<?xml version="1.0" encoding="utf-8"?>
<svg version="1.1" xmlns:xlink="http://www.w3.org/1999/xlink" width="12px" height="12px" viewBox="943 418  12 12" xmlns="http://www.w3.org/2000/svg">
  <path d="M 949 418  C 952.36 418  955 420.64  955 424  C 955 427.36  952.36 430  949 430  C 945.64 430  943 427.36  943 424  C 943 420.64  945.64 418  949 418  Z " fill-rule="nonzero" fill="#ffffff" stroke="none" />
  <path d="M 949 418.5  C 952.08 418.5  954.5 420.92  954.5 424  C 954.5 427.08  952.08 429.5  949 429.5  C 945.92 429.5  943.5 427.08  943.5 424  C 943.5 420.92  945.92 418.5  949 418.5  Z " stroke-width="1" stroke="#797979" fill="none" />
  <path d="M 949 427  C 947.32 427  946 425.68  946 424  C 946 422.32  947.32 421  949 421  C 950.68 421  952 422.32  952 424  C 952 425.68  950.68 427  949 427  " fill-rule="nonzero" fill="#797979" stroke="none" />
</svg>