<?xml version="1.0" encoding="utf-8"?>
<svg version="1.1" xmlns:xlink="http://www.w3.org/1999/xlink" width="12px" height="12px" viewBox="1326 407  12 12" xmlns="http://www.w3.org/2000/svg">
  <path d="M 1332 407  C 1335.36 407  1338 409.64  1338 413  C 1338 416.36  1335.36 419  1332 419  C 1328.64 419  1326 416.36  1326 413  C 1326 409.64  1328.64 407  1332 407  Z " fill-rule="nonzero" fill="#f0f0f0" stroke="none" />
  <path d="M 1332 407.5  C 1335.08 407.5  1337.5 409.92  1337.5 413  C 1337.5 416.08  1335.08 418.5  1332 418.5  C 1328.92 418.5  1326.5 416.08  1326.5 413  C 1326.5 409.92  1328.92 407.5  1332 407.5  Z " stroke-width="1" stroke="#797979" fill="none" />
  <path d="M 1332 416  C 1330.32 416  1329 414.68  1329 413  C 1329 411.32  1330.32 410  1332 410  C 1333.68 410  1335 411.32  1335 413  C 1335 414.68  1333.68 416  1332 416  " fill-rule="nonzero" fill="#797979" stroke="none" />
</svg>