<?xml version="1.0" encoding="utf-8"?>
<svg version="1.1" xmlns:xlink="http://www.w3.org/1999/xlink" width="12px" height="12px" viewBox="385 826  12 12" xmlns="http://www.w3.org/2000/svg">
  <path d="M 391 826  C 394.36 826  397 828.64  397 832  C 397 835.36  394.36 838  391 838  C 387.64 838  385 835.36  385 832  C 385 828.64  387.64 826  391 826  Z " fill-rule="nonzero" fill="#f0f0f0" stroke="none" />
  <path d="M 391 826.5  C 394.08 826.5  396.5 828.92  396.5 832  C 396.5 835.08  394.08 837.5  391 837.5  C 387.92 837.5  385.5 835.08  385.5 832  C 385.5 828.92  387.92 826.5  391 826.5  Z " stroke-width="1" stroke="#797979" fill="none" />
  <path d="M 391 835  C 389.32 835  388 833.68  388 832  C 388 830.32  389.32 829  391 829  C 392.68 829  394 830.32  394 832  C 394 833.68  392.68 835  391 835  " fill-rule="nonzero" fill="#797979" stroke="none" />
</svg>