<?xml version="1.0" encoding="utf-8"?>
<svg version="1.1" xmlns:xlink="http://www.w3.org/1999/xlink" width="12px" height="12px" viewBox="1427 370  12 12" xmlns="http://www.w3.org/2000/svg">
  <path d="M 1433 370  C 1436.36 370  1439 372.64  1439 376  C 1439 379.36  1436.36 382  1433 382  C 1429.64 382  1427 379.36  1427 376  C 1427 372.64  1429.64 370  1433 370  Z " fill-rule="nonzero" fill="#f0f0f0" stroke="none" />
  <path d="M 1433 370.5  C 1436.08 370.5  1438.5 372.92  1438.5 376  C 1438.5 379.08  1436.08 381.5  1433 381.5  C 1429.92 381.5  1427.5 379.08  1427.5 376  C 1427.5 372.92  1429.92 370.5  1433 370.5  Z " stroke-width="1" stroke="#797979" fill="none" />
  <path d="M 1433 379  C 1431.32 379  1430 377.68  1430 376  C 1430 374.32  1431.32 373  1433 373  C 1434.68 373  1436 374.32  1436 376  C 1436 377.68  1434.68 379  1433 379  " fill-rule="nonzero" fill="#797979" stroke="none" />
</svg>