<?xml version="1.0" encoding="utf-8"?>
<svg version="1.1" xmlns:xlink="http://www.w3.org/1999/xlink" width="12px" height="12px" viewBox="1334 804  12 12" xmlns="http://www.w3.org/2000/svg">
  <path d="M 1340 804  C 1343.36 804  1346 806.64  1346 810  C 1346 813.36  1343.36 816  1340 816  C 1336.64 816  1334 813.36  1334 810  C 1334 806.64  1336.64 804  1340 804  Z " fill-rule="nonzero" fill="#ffffff" stroke="none" />
  <path d="M 1340 804.5  C 1343.08 804.5  1345.5 806.92  1345.5 810  C 1345.5 813.08  1343.08 815.5  1340 815.5  C 1336.92 815.5  1334.5 813.08  1334.5 810  C 1334.5 806.92  1336.92 804.5  1340 804.5  Z " stroke-width="1" stroke="#797979" fill="none" />
  <path d="M 1340 813  C 1338.32 813  1337 811.68  1337 810  C 1337 808.32  1338.32 807  1340 807  C 1341.68 807  1343 808.32  1343 810  C 1343 811.68  1341.68 813  1340 813  " fill-rule="nonzero" fill="#797979" stroke="none" />
</svg>