<?xml version="1.0" encoding="utf-8"?>
<svg version="1.1" xmlns:xlink="http://www.w3.org/1999/xlink" width="12px" height="12px" viewBox="385 790  12 12" xmlns="http://www.w3.org/2000/svg">
  <path d="M 391 790  C 394.36 790  397 792.64  397 796  C 397 799.36  394.36 802  391 802  C 387.64 802  385 799.36  385 796  C 385 792.64  387.64 790  391 790  Z " fill-rule="nonzero" fill="#f0f0f0" stroke="none" />
  <path d="M 391 790.5  C 394.08 790.5  396.5 792.92  396.5 796  C 396.5 799.08  394.08 801.5  391 801.5  C 387.92 801.5  385.5 799.08  385.5 796  C 385.5 792.92  387.92 790.5  391 790.5  Z " stroke-width="1" stroke="#797979" fill="none" />
  <path d="M 391 799  C 389.32 799  388 797.68  388 796  C 388 794.32  389.32 793  391 793  C 392.68 793  394 794.32  394 796  C 394 797.68  392.68 799  391 799  " fill-rule="nonzero" fill="#797979" stroke="none" />
</svg>