<?xml version="1.0" encoding="utf-8"?>
<svg version="1.1" xmlns:xlink="http://www.w3.org/1999/xlink" width="12px" height="12px" viewBox="489 943  12 12" xmlns="http://www.w3.org/2000/svg">
  <path d="M 495 943  C 498.36 943  501 945.64  501 949  C 501 952.36  498.36 955  495 955  C 491.64 955  489 952.36  489 949  C 489 945.64  491.64 943  495 943  Z " fill-rule="nonzero" fill="#f0f0f0" stroke="none" />
  <path d="M 495 943.5  C 498.08 943.5  500.5 945.92  500.5 949  C 500.5 952.08  498.08 954.5  495 954.5  C 491.92 954.5  489.5 952.08  489.5 949  C 489.5 945.92  491.92 943.5  495 943.5  Z " stroke-width="1" stroke="#797979" fill="none" />
  <path d="M 495 952  C 493.32 952  492 950.68  492 949  C 492 947.32  493.32 946  495 946  C 496.68 946  498 947.32  498 949  C 498 950.68  496.68 952  495 952  " fill-rule="nonzero" fill="#797979" stroke="none" />
</svg>