<?xml version="1.0" encoding="utf-8"?>
<svg version="1.1" xmlns:xlink="http://www.w3.org/1999/xlink" width="12px" height="12px" viewBox="978 796  12 12" xmlns="http://www.w3.org/2000/svg">
  <path d="M 984 796  C 987.36 796  990 798.64  990 802  C 990 805.36  987.36 808  984 808  C 980.64 808  978 805.36  978 802  C 978 798.64  980.64 796  984 796  Z " fill-rule="nonzero" fill="#ffffff" stroke="none" />
  <path d="M 984 796.5  C 987.08 796.5  989.5 798.92  989.5 802  C 989.5 805.08  987.08 807.5  984 807.5  C 980.92 807.5  978.5 805.08  978.5 802  C 978.5 798.92  980.92 796.5  984 796.5  Z " stroke-width="1" stroke="#797979" fill="none" />
  <path d="M 984 805  C 982.32 805  981 803.68  981 802  C 981 800.32  982.32 799  984 799  C 985.68 799  987 800.32  987 802  C 987 803.68  985.68 805  984 805  " fill-rule="nonzero" fill="#797979" stroke="none" />
</svg>