<?xml version="1.0" encoding="utf-8"?>
<svg version="1.1" xmlns:xlink="http://www.w3.org/1999/xlink" width="12px" height="12px" viewBox="1334 832  12 12" xmlns="http://www.w3.org/2000/svg">
  <path d="M 1340 832  C 1343.36 832  1346 834.64  1346 838  C 1346 841.36  1343.36 844  1340 844  C 1336.64 844  1334 841.36  1334 838  C 1334 834.64  1336.64 832  1340 832  Z " fill-rule="nonzero" fill="#ffffff" stroke="none" />
  <path d="M 1340 832.5  C 1343.08 832.5  1345.5 834.92  1345.5 838  C 1345.5 841.08  1343.08 843.5  1340 843.5  C 1336.92 843.5  1334.5 841.08  1334.5 838  C 1334.5 834.92  1336.92 832.5  1340 832.5  Z " stroke-width="1" stroke="#797979" fill="none" />
  <path d="M 1340 841  C 1338.32 841  1337 839.68  1337 838  C 1337 836.32  1338.32 835  1340 835  C 1341.68 835  1343 836.32  1343 838  C 1343 839.68  1341.68 841  1340 841  " fill-rule="nonzero" fill="#797979" stroke="none" />
</svg>