<?xml version="1.0" encoding="utf-8"?>
<svg version="1.1" xmlns:xlink="http://www.w3.org/1999/xlink" width="12px" height="12px" viewBox="491 435  12 12" xmlns="http://www.w3.org/2000/svg">
  <path d="M 497 435  C 500.36 435  503 437.64  503 441  C 503 444.36  500.36 447  497 447  C 493.64 447  491 444.36  491 441  C 491 437.64  493.64 435  497 435  Z " fill-rule="nonzero" fill="#f0f0f0" stroke="none" />
  <path d="M 497 435.5  C 500.08 435.5  502.5 437.92  502.5 441  C 502.5 444.08  500.08 446.5  497 446.5  C 493.92 446.5  491.5 444.08  491.5 441  C 491.5 437.92  493.92 435.5  497 435.5  Z " stroke-width="1" stroke="#797979" fill="none" />
  <path d="M 497 444  C 495.32 444  494 442.68  494 441  C 494 439.32  495.32 438  497 438  C 498.68 438  500 439.32  500 441  C 500 442.68  498.68 444  497 444  " fill-rule="nonzero" fill="#797979" stroke="none" />
</svg>