<?xml version="1.0" encoding="utf-8"?>
<svg version="1.1" xmlns:xlink="http://www.w3.org/1999/xlink" width="12px" height="12px" viewBox="839 450  12 12" xmlns="http://www.w3.org/2000/svg">
  <path d="M 845 450  C 848.36 450  851 452.64  851 456  C 851 459.36  848.36 462  845 462  C 841.64 462  839 459.36  839 456  C 839 452.64  841.64 450  845 450  Z " fill-rule="nonzero" fill="#f0f0f0" stroke="none" />
  <path d="M 845 450.5  C 848.08 450.5  850.5 452.92  850.5 456  C 850.5 459.08  848.08 461.5  845 461.5  C 841.92 461.5  839.5 459.08  839.5 456  C 839.5 452.92  841.92 450.5  845 450.5  Z " stroke-width="1" stroke="#797979" fill="none" />
  <path d="M 845 459  C 843.32 459  842 457.68  842 456  C 842 454.32  843.32 453  845 453  C 846.68 453  848 454.32  848 456  C 848 457.68  846.68 459  845 459  " fill-rule="nonzero" fill="#797979" stroke="none" />
</svg>