<?xml version="1.0" encoding="utf-8"?>
<svg version="1.1" xmlns:xlink="http://www.w3.org/1999/xlink" width="12px" height="12px" viewBox="1325 872  12 12" xmlns="http://www.w3.org/2000/svg">
  <path d="M 1331 872  C 1334.36 872  1337 874.64  1337 878  C 1337 881.36  1334.36 884  1331 884  C 1327.64 884  1325 881.36  1325 878  C 1325 874.64  1327.64 872  1331 872  Z " fill-rule="nonzero" fill="#ffffff" stroke="none" />
  <path d="M 1331 872.5  C 1334.08 872.5  1336.5 874.92  1336.5 878  C 1336.5 881.08  1334.08 883.5  1331 883.5  C 1327.92 883.5  1325.5 881.08  1325.5 878  C 1325.5 874.92  1327.92 872.5  1331 872.5  Z " stroke-width="1" stroke="#797979" fill="none" />
  <path d="M 1331 881  C 1329.32 881  1328 879.68  1328 878  C 1328 876.32  1329.32 875  1331 875  C 1332.68 875  1334 876.32  1334 878  C 1334 879.68  1332.68 881  1331 881  " fill-rule="nonzero" fill="#797979" stroke="none" />
</svg>