<?xml version="1.0" encoding="utf-8"?>
<svg version="1.1" xmlns:xlink="http://www.w3.org/1999/xlink" width="12px" height="12px" viewBox="1312 441  12 12" xmlns="http://www.w3.org/2000/svg">
  <path d="M 1318 441  C 1321.36 441  1324 443.64  1324 447  C 1324 450.36  1321.36 453  1318 453  C 1314.64 453  1312 450.36  1312 447  C 1312 443.64  1314.64 441  1318 441  Z " fill-rule="nonzero" fill="#f0f0f0" stroke="none" />
  <path d="M 1318 441.5  C 1321.08 441.5  1323.5 443.92  1323.5 447  C 1323.5 450.08  1321.08 452.5  1318 452.5  C 1314.92 452.5  1312.5 450.08  1312.5 447  C 1312.5 443.92  1314.92 441.5  1318 441.5  Z " stroke-width="1" stroke="#797979" fill="none" />
  <path d="M 1318 450  C 1316.32 450  1315 448.68  1315 447  C 1315 445.32  1316.32 444  1318 444  C 1319.68 444  1321 445.32  1321 447  C 1321 448.68  1319.68 450  1318 450  " fill-rule="nonzero" fill="#797979" stroke="none" />
</svg>