<?xml version="1.0" encoding="utf-8"?>
<svg version="1.1" xmlns:xlink="http://www.w3.org/1999/xlink" width="12px" height="12px" viewBox="943 450  12 12" xmlns="http://www.w3.org/2000/svg">
  <path d="M 949 450  C 952.36 450  955 452.64  955 456  C 955 459.36  952.36 462  949 462  C 945.64 462  943 459.36  943 456  C 943 452.64  945.64 450  949 450  Z " fill-rule="nonzero" fill="#ffffff" stroke="none" />
  <path d="M 949 450.5  C 952.08 450.5  954.5 452.92  954.5 456  C 954.5 459.08  952.08 461.5  949 461.5  C 945.92 461.5  943.5 459.08  943.5 456  C 943.5 452.92  945.92 450.5  949 450.5  Z " stroke-width="1" stroke="#797979" fill="none" />
  <path d="M 949 459  C 947.32 459  946 457.68  946 456  C 946 454.32  947.32 453  949 453  C 950.68 453  952 454.32  952 456  C 952 457.68  950.68 459  949 459  " fill-rule="nonzero" fill="#797979" stroke="none" />
</svg>