<?xml version="1.0" encoding="utf-8"?>
<svg version="1.1" xmlns:xlink="http://www.w3.org/1999/xlink" width="12px" height="12px" viewBox="1416 441  12 12" xmlns="http://www.w3.org/2000/svg">
  <path d="M 1422 441  C 1425.36 441  1428 443.64  1428 447  C 1428 450.36  1425.36 453  1422 453  C 1418.64 453  1416 450.36  1416 447  C 1416 443.64  1418.64 441  1422 441  Z " fill-rule="nonzero" fill="#ffffff" stroke="none" />
  <path d="M 1422 441.5  C 1425.08 441.5  1427.5 443.92  1427.5 447  C 1427.5 450.08  1425.08 452.5  1422 452.5  C 1418.92 452.5  1416.5 450.08  1416.5 447  C 1416.5 443.92  1418.92 441.5  1422 441.5  Z " stroke-width="1" stroke="#797979" fill="none" />
  <path d="M 1422 450  C 1420.32 450  1419 448.68  1419 447  C 1419 445.32  1420.32 444  1422 444  C 1423.68 444  1425 445.32  1425 447  C 1425 448.68  1423.68 450  1422 450  " fill-rule="nonzero" fill="#797979" stroke="none" />
</svg>