<?xml version="1.0" encoding="utf-8"?>
<svg version="1.1" xmlns:xlink="http://www.w3.org/1999/xlink" width="12px" height="12px" viewBox="385 873  12 12" xmlns="http://www.w3.org/2000/svg">
  <path d="M 391 873  C 394.36 873  397 875.64  397 879  C 397 882.36  394.36 885  391 885  C 387.64 885  385 882.36  385 879  C 385 875.64  387.64 873  391 873  Z " fill-rule="nonzero" fill="#f0f0f0" stroke="none" />
  <path d="M 391 873.5  C 394.08 873.5  396.5 875.92  396.5 879  C 396.5 882.08  394.08 884.5  391 884.5  C 387.92 884.5  385.5 882.08  385.5 879  C 385.5 875.92  387.92 873.5  391 873.5  Z " stroke-width="1" stroke="#797979" fill="none" />
  <path d="M 391 882  C 389.32 882  388 880.68  388 879  C 388 877.32  389.32 876  391 876  C 392.68 876  394 877.32  394 879  C 394 880.68  392.68 882  391 882  " fill-rule="nonzero" fill="#797979" stroke="none" />
</svg>