<?xml version="1.0" encoding="utf-8"?>
<svg version="1.1" xmlns:xlink="http://www.w3.org/1999/xlink" width="12px" height="12px" viewBox="868 877  12 12" xmlns="http://www.w3.org/2000/svg">
  <path d="M 874 877  C 877.36 877  880 879.64  880 883  C 880 886.36  877.36 889  874 889  C 870.64 889  868 886.36  868 883  C 868 879.64  870.64 877  874 877  Z " fill-rule="nonzero" fill="#ffffff" stroke="none" />
  <path d="M 874 877.5  C 877.08 877.5  879.5 879.92  879.5 883  C 879.5 886.08  877.08 888.5  874 888.5  C 870.92 888.5  868.5 886.08  868.5 883  C 868.5 879.92  870.92 877.5  874 877.5  Z " stroke-width="1" stroke="#797979" fill="none" />
  <path d="M 874 886  C 872.32 886  871 884.68  871 883  C 871 881.32  872.32 880  874 880  C 875.68 880  877 881.32  877 883  C 877 884.68  875.68 886  874 886  " fill-rule="nonzero" fill="#797979" stroke="none" />
</svg>