<?xml version="1.0" encoding="utf-8"?>
<svg version="1.1" xmlns:xlink="http://www.w3.org/1999/xlink" width="12px" height="12px" viewBox="478 269  12 12" xmlns="http://www.w3.org/2000/svg">
  <path d="M 484 269  C 487.36 269  490 271.64  490 275  C 490 278.36  487.36 281  484 281  C 480.64 281  478 278.36  478 275  C 478 271.64  480.64 269  484 269  Z " fill-rule="nonzero" fill="#f0f0f0" stroke="none" />
  <path d="M 484 269.5  C 487.08 269.5  489.5 271.92  489.5 275  C 489.5 278.08  487.08 280.5  484 280.5  C 480.92 280.5  478.5 278.08  478.5 275  C 478.5 271.92  480.92 269.5  484 269.5  Z " stroke-width="1" stroke="#797979" fill="none" />
  <path d="M 484 278  C 482.32 278  481 276.68  481 275  C 481 273.32  482.32 272  484 272  C 485.68 272  487 273.32  487 275  C 487 276.68  485.68 278  484 278  " fill-rule="nonzero" fill="#797979" stroke="none" />
</svg>