<?xml version="1.0" encoding="utf-8"?>
<svg version="1.1" xmlns:xlink="http://www.w3.org/1999/xlink" width="12px" height="12px" viewBox="955 273  12 12" xmlns="http://www.w3.org/2000/svg">
  <path d="M 961 273  C 964.36 273  967 275.64  967 279  C 967 282.36  964.36 285  961 285  C 957.64 285  955 282.36  955 279  C 955 275.64  957.64 273  961 273  Z " fill-rule="nonzero" fill="#f0f0f0" stroke="none" />
  <path d="M 961 273.5  C 964.08 273.5  966.5 275.92  966.5 279  C 966.5 282.08  964.08 284.5  961 284.5  C 957.92 284.5  955.5 282.08  955.5 279  C 955.5 275.92  957.92 273.5  961 273.5  Z " stroke-width="1" stroke="#797979" fill="none" />
  <path d="M 961 282  C 959.32 282  958 280.68  958 279  C 958 277.32  959.32 276  961 276  C 962.68 276  964 277.32  964 279  C 964 280.68  962.68 282  961 282  " fill-rule="nonzero" fill="#797979" stroke="none" />
</svg>