<?xml version="1.0" encoding="utf-8"?>
<svg version="1.1" xmlns:xlink="http://www.w3.org/1999/xlink" width="12px" height="12px" viewBox="374 694  12 12" xmlns="http://www.w3.org/2000/svg">
  <path d="M 380 694  C 383.36 694  386 696.64  386 700  C 386 703.36  383.36 706  380 706  C 376.64 706  374 703.36  374 700  C 374 696.64  376.64 694  380 694  Z " fill-rule="nonzero" fill="#ffffff" stroke="none" />
  <path d="M 380 694.5  C 383.08 694.5  385.5 696.92  385.5 700  C 385.5 703.08  383.08 705.5  380 705.5  C 376.92 705.5  374.5 703.08  374.5 700  C 374.5 696.92  376.92 694.5  380 694.5  Z " stroke-width="1" stroke="#797979" fill="none" />
  <path d="M 380 703  C 378.32 703  377 701.68  377 700  C 377 698.32  378.32 697  380 697  C 381.68 697  383 698.32  383 700  C 383 701.68  381.68 703  380 703  " fill-rule="nonzero" fill="#797979" stroke="none" />
</svg>