<?xml version="1.0" encoding="utf-8"?>
<svg version="1.1" xmlns:xlink="http://www.w3.org/1999/xlink" width="12px" height="12px" viewBox="2139 128  12 12" xmlns="http://www.w3.org/2000/svg">
  <path d="M 2145 128  C 2148.36 128  2151 130.64  2151 134  C 2151 137.36  2148.36 140  2145 140  C 2141.64 140  2139 137.36  2139 134  C 2139 130.64  2141.64 128  2145 128  Z " fill-rule="nonzero" fill="#f0f0f0" stroke="none" />
  <path d="M 2145 128.5  C 2148.08 128.5  2150.5 130.92  2150.5 134  C 2150.5 137.08  2148.08 139.5  2145 139.5  C 2141.92 139.5  2139.5 137.08  2139.5 134  C 2139.5 130.92  2141.92 128.5  2145 128.5  Z " stroke-width="1" stroke="#797979" fill="none" />
  <path d="M 2145 137  C 2143.32 137  2142 135.68  2142 134  C 2142 132.32  2143.32 131  2145 131  C 2146.68 131  2148 132.32  2148 134  C 2148 135.68  2146.68 137  2145 137  " fill-rule="nonzero" fill="#797979" stroke="none" />
</svg>