<?xml version="1.0" encoding="utf-8"?>
<svg version="1.1" xmlns:xlink="http://www.w3.org/1999/xlink" width="12px" height="12px" viewBox="1873 1705  12 12" xmlns="http://www.w3.org/2000/svg">
  <path d="M 1879 1705  C 1882.36 1705  1885 1707.64  1885 1711  C 1885 1714.36  1882.36 1717  1879 1717  C 1875.64 1717  1873 1714.36  1873 1711  C 1873 1707.64  1875.64 1705  1879 1705  Z " fill-rule="nonzero" fill="#f0f0f0" stroke="none" />
  <path d="M 1879 1705.5  C 1882.08 1705.5  1884.5 1707.92  1884.5 1711  C 1884.5 1714.08  1882.08 1716.5  1879 1716.5  C 1875.92 1716.5  1873.5 1714.08  1873.5 1711  C 1873.5 1707.92  1875.92 1705.5  1879 1705.5  Z " stroke-width="1" stroke="#797979" fill="none" />
  <path d="M 1879 1714  C 1877.32 1714  1876 1712.68  1876 1711  C 1876 1709.32  1877.32 1708  1879 1708  C 1880.68 1708  1882 1709.32  1882 1711  C 1882 1712.68  1880.68 1714  1879 1714  " fill-rule="nonzero" fill="#797979" stroke="none" />
</svg>