<?xml version="1.0" encoding="utf-8"?>
<svg version="1.1" xmlns:xlink="http://www.w3.org/1999/xlink" width="12px" height="12px" viewBox="2270 1706  12 12" xmlns="http://www.w3.org/2000/svg">
  <path d="M 2276 1706  C 2279.36 1706  2282 1708.64  2282 1712  C 2282 1715.36  2279.36 1718  2276 1718  C 2272.64 1718  2270 1715.36  2270 1712  C 2270 1708.64  2272.64 1706  2276 1706  Z " fill-rule="nonzero" fill="#f0f0f0" stroke="none" />
  <path d="M 2276 1706.5  C 2279.08 1706.5  2281.5 1708.92  2281.5 1712  C 2281.5 1715.08  2279.08 1717.5  2276 1717.5  C 2272.92 1717.5  2270.5 1715.08  2270.5 1712  C 2270.5 1708.92  2272.92 1706.5  2276 1706.5  Z " stroke-width="1" stroke="#797979" fill="none" />
  <path d="M 2276 1715  C 2274.32 1715  2273 1713.68  2273 1712  C 2273 1710.32  2274.32 1709  2276 1709  C 2277.68 1709  2279 1710.32  2279 1712  C 2279 1713.68  2277.68 1715  2276 1715  " fill-rule="nonzero" fill="#797979" stroke="none" />
</svg>