<?xml version="1.0" encoding="utf-8"?>
<svg version="1.1" xmlns:xlink="http://www.w3.org/1999/xlink" width="12px" height="12px" viewBox="2001 129  12 12" xmlns="http://www.w3.org/2000/svg">
  <path d="M 2007 129  C 2010.36 129  2013 131.64  2013 135  C 2013 138.36  2010.36 141  2007 141  C 2003.64 141  2001 138.36  2001 135  C 2001 131.64  2003.64 129  2007 129  Z " fill-rule="nonzero" fill="#f0f0f0" stroke="none" />
  <path d="M 2007 129.5  C 2010.08 129.5  2012.5 131.92  2012.5 135  C 2012.5 138.08  2010.08 140.5  2007 140.5  C 2003.92 140.5  2001.5 138.08  2001.5 135  C 2001.5 131.92  2003.92 129.5  2007 129.5  Z " stroke-width="1" stroke="#797979" fill="none" />
  <path d="M 2007 138  C 2005.32 138  2004 136.68  2004 135  C 2004 133.32  2005.32 132  2007 132  C 2008.68 132  2010 133.32  2010 135  C 2010 136.68  2008.68 138  2007 138  " fill-rule="nonzero" fill="#797979" stroke="none" />
</svg>