<?xml version="1.0" encoding="utf-8"?>
<svg version="1.1" xmlns:xlink="http://www.w3.org/1999/xlink" width="12px" height="12px" viewBox="1873 228  12 12" xmlns="http://www.w3.org/2000/svg">
  <path d="M 1879 228  C 1882.36 228  1885 230.64  1885 234  C 1885 237.36  1882.36 240  1879 240  C 1875.64 240  1873 237.36  1873 234  C 1873 230.64  1875.64 228  1879 228  Z " fill-rule="nonzero" fill="#f0f0f0" stroke="none" />
  <path d="M 1879 228.5  C 1882.08 228.5  1884.5 230.92  1884.5 234  C 1884.5 237.08  1882.08 239.5  1879 239.5  C 1875.92 239.5  1873.5 237.08  1873.5 234  C 1873.5 230.92  1875.92 228.5  1879 228.5  Z " stroke-width="1" stroke="#797979" fill="none" />
  <path d="M 1879 237  C 1877.32 237  1876 235.68  1876 234  C 1876 232.32  1877.32 231  1879 231  C 1880.68 231  1882 232.32  1882 234  C 1882 235.68  1880.68 237  1879 237  " fill-rule="nonzero" fill="#797979" stroke="none" />
</svg>