<?xml version="1.0" encoding="utf-8"?>
<svg version="1.1" xmlns:xlink="http://www.w3.org/1999/xlink" width="12px" height="12px" viewBox="2139 900  12 12" xmlns="http://www.w3.org/2000/svg">
  <path d="M 2145 900  C 2148.36 900  2151 902.64  2151 906  C 2151 909.36  2148.36 912  2145 912  C 2141.64 912  2139 909.36  2139 906  C 2139 902.64  2141.64 900  2145 900  Z " fill-rule="nonzero" fill="#ffffff" stroke="none" />
  <path d="M 2145 900.5  C 2148.08 900.5  2150.5 902.92  2150.5 906  C 2150.5 909.08  2148.08 911.5  2145 911.5  C 2141.92 911.5  2139.5 909.08  2139.5 906  C 2139.5 902.92  2141.92 900.5  2145 900.5  Z " stroke-width="1" stroke="#797979" fill="none" />
  <path d="M 2145 909  C 2143.32 909  2142 907.68  2142 906  C 2142 904.32  2143.32 903  2145 903  C 2146.68 903  2148 904.32  2148 906  C 2148 907.68  2146.68 909  2145 909  " fill-rule="nonzero" fill="#797979" stroke="none" />
</svg>