<?xml version="1.0" encoding="utf-8"?>
<svg version="1.1" xmlns:xlink="http://www.w3.org/1999/xlink" width="12px" height="12px" viewBox="2001 901  12 12" xmlns="http://www.w3.org/2000/svg">
  <path d="M 2007 901  C 2010.36 901  2013 903.64  2013 907  C 2013 910.36  2010.36 913  2007 913  C 2003.64 913  2001 910.36  2001 907  C 2001 903.64  2003.64 901  2007 901  Z " fill-rule="nonzero" fill="#f0f0f0" stroke="none" />
  <path d="M 2007 901.5  C 2010.08 901.5  2012.5 903.92  2012.5 907  C 2012.5 910.08  2010.08 912.5  2007 912.5  C 2003.92 912.5  2001.5 910.08  2001.5 907  C 2001.5 903.92  2003.92 901.5  2007 901.5  Z " stroke-width="1" stroke="#797979" fill="none" />
  <path d="M 2007 910  C 2005.32 910  2004 908.68  2004 907  C 2004 905.32  2005.32 904  2007 904  C 2008.68 904  2010 905.32  2010 907  C 2010 908.68  2008.68 910  2007 910  " fill-rule="nonzero" fill="#797979" stroke="none" />
</svg>