<?xml version="1.0" encoding="utf-8"?>
<svg version="1.1" xmlns:xlink="http://www.w3.org/1999/xlink" width="12px" height="12px" viewBox="2001 1707  12 12" xmlns="http://www.w3.org/2000/svg">
  <path d="M 2007 1707  C 2010.36 1707  2013 1709.64  2013 1713  C 2013 1716.36  2010.36 1719  2007 1719  C 2003.64 1719  2001 1716.36  2001 1713  C 2001 1709.64  2003.64 1707  2007 1707  Z " fill-rule="nonzero" fill="#f0f0f0" stroke="none" />
  <path d="M 2007 1707.5  C 2010.08 1707.5  2012.5 1709.92  2012.5 1713  C 2012.5 1716.08  2010.08 1718.5  2007 1718.5  C 2003.92 1718.5  2001.5 1716.08  2001.5 1713  C 2001.5 1709.92  2003.92 1707.5  2007 1707.5  Z " stroke-width="1" stroke="#797979" fill="none" />
  <path d="M 2007 1716  C 2005.32 1716  2004 1714.68  2004 1713  C 2004 1711.32  2005.32 1710  2007 1710  C 2008.68 1710  2010 1711.32  2010 1713  C 2010 1714.68  2008.68 1716  2007 1716  " fill-rule="nonzero" fill="#797979" stroke="none" />
</svg>