<?xml version="1.0" encoding="utf-8"?>
<svg version="1.1" xmlns:xlink="http://www.w3.org/1999/xlink" width="12px" height="12px" viewBox="1873 899  12 12" xmlns="http://www.w3.org/2000/svg">
  <path d="M 1879 899  C 1882.36 899  1885 901.64  1885 905  C 1885 908.36  1882.36 911  1879 911  C 1875.64 911  1873 908.36  1873 905  C 1873 901.64  1875.64 899  1879 899  Z " fill-rule="nonzero" fill="#ffffff" stroke="none" />
  <path d="M 1879 899.5  C 1882.08 899.5  1884.5 901.92  1884.5 905  C 1884.5 908.08  1882.08 910.5  1879 910.5  C 1875.92 910.5  1873.5 908.08  1873.5 905  C 1873.5 901.92  1875.92 899.5  1879 899.5  Z " stroke-width="1" stroke="#797979" fill="none" />
  <path d="M 1879 908  C 1877.32 908  1876 906.68  1876 905  C 1876 903.32  1877.32 902  1879 902  C 1880.68 902  1882 903.32  1882 905  C 1882 906.68  1880.68 908  1879 908  " fill-rule="nonzero" fill="#797979" stroke="none" />
</svg>