<?xml version="1.0" encoding="utf-8"?>
<svg version="1.1" xmlns:xlink="http://www.w3.org/1999/xlink" width="12px" height="12px" viewBox="2110 1001  12 12" xmlns="http://www.w3.org/2000/svg">
  <path d="M 2116 1001  C 2119.36 1001  2122 1003.64  2122 1007  C 2122 1010.36  2119.36 1013  2116 1013  C 2112.64 1013  2110 1010.36  2110 1007  C 2110 1003.64  2112.64 1001  2116 1001  Z " fill-rule="nonzero" fill="#f0f0f0" stroke="none" />
  <path d="M 2116 1001.5  C 2119.08 1001.5  2121.5 1003.92  2121.5 1007  C 2121.5 1010.08  2119.08 1012.5  2116 1012.5  C 2112.92 1012.5  2110.5 1010.08  2110.5 1007  C 2110.5 1003.92  2112.92 1001.5  2116 1001.5  Z " stroke-width="1" stroke="#797979" fill="none" />
  <path d="M 2116 1010  C 2114.32 1010  2113 1008.68  2113 1007  C 2113 1005.32  2114.32 1004  2116 1004  C 2117.68 1004  2119 1005.32  2119 1007  C 2119 1008.68  2117.68 1010  2116 1010  " fill-rule="nonzero" fill="#797979" stroke="none" />
</svg>