<?xml version="1.0" encoding="utf-8"?>
<svg version="1.1" xmlns:xlink="http://www.w3.org/1999/xlink" width="12px" height="12px" viewBox="1873 127  12 12" xmlns="http://www.w3.org/2000/svg">
  <path d="M 1879 127  C 1882.36 127  1885 129.64  1885 133  C 1885 136.36  1882.36 139  1879 139  C 1875.64 139  1873 136.36  1873 133  C 1873 129.64  1875.64 127  1879 127  Z " fill-rule="nonzero" fill="#ffffff" stroke="none" />
  <path d="M 1879 127.5  C 1882.08 127.5  1884.5 129.92  1884.5 133  C 1884.5 136.08  1882.08 138.5  1879 138.5  C 1875.92 138.5  1873.5 136.08  1873.5 133  C 1873.5 129.92  1875.92 127.5  1879 127.5  Z " stroke-width="1" stroke="#797979" fill="none" />
  <path d="M 1879 136  C 1877.32 136  1876 134.68  1876 133  C 1876 131.32  1877.32 130  1879 130  C 1880.68 130  1882 131.32  1882 133  C 1882 134.68  1880.68 136  1879 136  " fill-rule="nonzero" fill="#797979" stroke="none" />
</svg>