<?xml version="1.0" encoding="utf-8"?>
<svg version="1.1" xmlns:xlink="http://www.w3.org/1999/xlink" width="12px" height="12px" viewBox="2270 900  12 12" xmlns="http://www.w3.org/2000/svg">
  <path d="M 2276 900  C 2279.36 900  2282 902.64  2282 906  C 2282 909.36  2279.36 912  2276 912  C 2272.64 912  2270 909.36  2270 906  C 2270 902.64  2272.64 900  2276 900  Z " fill-rule="nonzero" fill="#ffffff" stroke="none" />
  <path d="M 2276 900.5  C 2279.08 900.5  2281.5 902.92  2281.5 906  C 2281.5 909.08  2279.08 911.5  2276 911.5  C 2272.92 911.5  2270.5 909.08  2270.5 906  C 2270.5 902.92  2272.92 900.5  2276 900.5  Z " stroke-width="1" stroke="#797979" fill="none" />
  <path d="M 2276 909  C 2274.32 909  2273 907.68  2273 906  C 2273 904.32  2274.32 903  2276 903  C 2277.68 903  2279 904.32  2279 906  C 2279 907.68  2277.68 909  2276 909  " fill-rule="nonzero" fill="#797979" stroke="none" />
</svg>