<?xml version="1.0" encoding="utf-8"?>
<svg version="1.1" xmlns:xlink="http://www.w3.org/1999/xlink" width="12px" height="12px" viewBox="2228 1001  12 12" xmlns="http://www.w3.org/2000/svg">
  <path d="M 2234 1001  C 2237.36 1001  2240 1003.64  2240 1007  C 2240 1010.36  2237.36 1013  2234 1013  C 2230.64 1013  2228 1010.36  2228 1007  C 2228 1003.64  2230.64 1001  2234 1001  Z " fill-rule="nonzero" fill="#ffffff" stroke="none" />
  <path d="M 2234 1001.5  C 2237.08 1001.5  2239.5 1003.92  2239.5 1007  C 2239.5 1010.08  2237.08 1012.5  2234 1012.5  C 2230.92 1012.5  2228.5 1010.08  2228.5 1007  C 2228.5 1003.92  2230.92 1001.5  2234 1001.5  Z " stroke-width="1" stroke="#797979" fill="none" />
  <path d="M 2234 1010  C 2232.32 1010  2231 1008.68  2231 1007  C 2231 1005.32  2232.32 1004  2234 1004  C 2235.68 1004  2237 1005.32  2237 1007  C 2237 1008.68  2235.68 1010  2234 1010  " fill-rule="nonzero" fill="#797979" stroke="none" />
</svg>