<?xml version="1.0" encoding="utf-8"?>
<svg version="1.1" xmlns:xlink="http://www.w3.org/1999/xlink" width="12px" height="12px" viewBox="1873 1000  12 12" xmlns="http://www.w3.org/2000/svg">
  <path d="M 1879 1000  C 1882.36 1000  1885 1002.64  1885 1006  C 1885 1009.36  1882.36 1012  1879 1012  C 1875.64 1012  1873 1009.36  1873 1006  C 1873 1002.64  1875.64 1000  1879 1000  Z " fill-rule="nonzero" fill="#ffffff" stroke="none" />
  <path d="M 1879 1000.5  C 1882.08 1000.5  1884.5 1002.92  1884.5 1006  C 1884.5 1009.08  1882.08 1011.5  1879 1011.5  C 1875.92 1011.5  1873.5 1009.08  1873.5 1006  C 1873.5 1002.92  1875.92 1000.5  1879 1000.5  Z " stroke-width="1" stroke="#797979" fill="none" />
  <path d="M 1879 1009  C 1877.32 1009  1876 1007.68  1876 1006  C 1876 1004.32  1877.32 1003  1879 1003  C 1880.68 1003  1882 1004.32  1882 1006  C 1882 1007.68  1880.68 1009  1879 1009  " fill-rule="nonzero" fill="#797979" stroke="none" />
</svg>