<?xml version="1.0" encoding="utf-8"?>
<svg version="1.1" xmlns:xlink="http://www.w3.org/1999/xlink" width="16px" height="15px" xmlns="http://www.w3.org/2000/svg">
  <g transform="matrix(1 0 0 1 -1253 -328 )">
    <path d="M 14.7723214285714 13.8490513392857  C 14.828869047619 13.7960379464286  14.8571428571429 13.7332589285714  14.8571428571429 13.6607142857143  L 14.8571428571429 4.55357142857143  C 14.8571428571429 4.48102678571428  14.828869047619 4.41824776785714  14.7723214285714 4.365234375  C 14.7157738095238 4.31222098214286  14.6488095238095 4.28571428571429  14.5714285714286 4.28571428571429  L 4.85714285714286 4.28571428571429  C 4.77976190476191 4.28571428571429  4.71279761904762 4.31222098214286  4.65625 4.365234375  C 4.59970238095238 4.41824776785714  4.57142857142857 4.48102678571428  4.57142857142857 4.55357142857143  L 4.57142857142857 13.6607142857143  C 4.57142857142857 13.7332589285714  4.59970238095238 13.7960379464286  4.65625 13.8490513392857  C 4.71279761904762 13.9020647321429  4.77976190476191 13.9285714285714  4.85714285714286 13.9285714285714  L 14.5714285714286 13.9285714285714  C 14.6488095238095 13.9285714285714  14.7157738095238 13.9020647321429  14.7723214285714 13.8490513392857  Z M 15.5803571428571 3.60770089285714  C 15.860119047619 3.86997767857143  16 4.18526785714286  16 4.55357142857143  L 16 13.6607142857143  C 16 14.0290178571429  15.860119047619 14.3443080357143  15.5803571428571 14.6065848214286  C 15.3005952380952 14.8688616071429  14.9642857142857 15  14.5714285714286 15  L 4.85714285714286 15  C 4.46428571428571 15  4.12797619047619 14.8688616071429  3.84821428571429 14.6065848214286  C 3.56845238095238 14.3443080357143  3.42857142857143 14.0290178571429  3.42857142857143 13.6607142857143  L 3.42857142857143 4.55357142857143  C 3.42857142857143 4.18526785714286  3.56845238095238 3.86997767857143  3.84821428571429 3.60770089285714  C 4.12797619047619 3.34542410714286  4.46428571428571 3.21428571428571  4.85714285714286 3.21428571428571  L 14.5714285714286 3.21428571428571  C 14.9642857142857 3.21428571428571  15.3005952380952 3.34542410714286  15.5803571428571 3.60770089285714  Z M 12.1517857142857 0.393415178571429  C 12.4315476190476 0.655691964285713  12.5714285714286 0.970982142857144  12.5714285714286 1.33928571428571  L 12.5714285714286 2.67857142857143  L 11.4285714285714 2.67857142857143  L 11.4285714285714 1.33928571428571  C 11.4285714285714 1.26674107142857  11.4002976190476 1.20396205357143  11.34375 1.15094866071429  C 11.2872023809524 1.09793526785714  11.2202380952381 1.07142857142857  11.1428571428571 1.07142857142857  L 1.42857142857143 1.07142857142857  C 1.35119047619048 1.07142857142857  1.28422619047619 1.09793526785714  1.22767857142857 1.15094866071429  C 1.17113095238095 1.20396205357143  1.14285714285714 1.26674107142857  1.14285714285714 1.33928571428571  L 1.14285714285714 10.4464285714286  C 1.14285714285714 10.5189732142857  1.17113095238095 10.5817522321429  1.22767857142857 10.634765625  C 1.28422619047619 10.6877790178571  1.35119047619048 10.7142857142857  1.42857142857143 10.7142857142857  L 2.85714285714286 10.7142857142857  L 2.85714285714286 11.7857142857143  L 1.42857142857143 11.7857142857143  C 1.03571428571429 11.7857142857143  0.699404761904762 11.6545758928571  0.419642857142857 11.3922991071429  C 0.139880952380952 11.1300223214286  0 10.8147321428571  0 10.4464285714286  L 0 1.33928571428571  C 0 0.970982142857144  0.139880952380952 0.655691964285713  0.419642857142857 0.393415178571429  C 0.699404761904762 0.131138392857143  1.03571428571429 0  1.42857142857143 0  L 11.1428571428571 0  C 11.5357142857143 0  11.8720238095238 0.131138392857143  12.1517857142857 0.393415178571429  Z " fill-rule="nonzero" fill="#000000" stroke="none" transform="matrix(1 0 0 1 1253 328 )" />
  </g>
</svg>