<?xml version="1.0" encoding="utf-8"?>
<svg version="1.1" xmlns:xlink="http://www.w3.org/1999/xlink" width="14px" height="15px" xmlns="http://www.w3.org/2000/svg">
  <g transform="matrix(1 0 0 1 -1480 -336 )">
    <path d="M 12.92578125 13.8490513392857  C 12.9752604166667 13.7960379464286  13 13.7332589285714  13 13.6607142857143  L 13 4.55357142857143  C 13 4.48102678571428  12.9752604166667 4.41824776785714  12.92578125 4.365234375  C 12.8763020833333 4.31222098214286  12.8177083333333 4.28571428571429  12.75 4.28571428571429  L 4.25 4.28571428571429  C 4.18229166666667 4.28571428571429  4.12369791666667 4.31222098214286  4.07421875 4.365234375  C 4.02473958333333 4.41824776785714  4 4.48102678571428  4 4.55357142857143  L 4 13.6607142857143  C 4 13.7332589285714  4.02473958333333 13.7960379464286  4.07421875 13.8490513392857  C 4.12369791666667 13.9020647321429  4.18229166666667 13.9285714285714  4.25 13.9285714285714  L 12.75 13.9285714285714  C 12.8177083333333 13.9285714285714  12.8763020833333 13.9020647321429  12.92578125 13.8490513392857  Z M 13.6328125 3.60770089285714  C 13.8776041666667 3.86997767857143  14 4.18526785714286  14 4.55357142857143  L 14 13.6607142857143  C 14 14.0290178571429  13.8776041666667 14.3443080357143  13.6328125 14.6065848214286  C 13.3880208333333 14.8688616071429  13.09375 15  12.75 15  L 4.25 15  C 3.90625 15  3.61197916666667 14.8688616071429  3.3671875 14.6065848214286  C 3.12239583333333 14.3443080357143  3 14.0290178571429  3 13.6607142857143  L 3 4.55357142857143  C 3 4.18526785714286  3.12239583333333 3.86997767857143  3.3671875 3.60770089285714  C 3.61197916666667 3.34542410714286  3.90625 3.21428571428571  4.25 3.21428571428571  L 12.75 3.21428571428571  C 13.09375 3.21428571428571  13.3880208333333 3.34542410714286  13.6328125 3.60770089285714  Z M 10.6328125 0.393415178571429  C 10.8776041666667 0.655691964285713  11 0.970982142857144  11 1.33928571428571  L 11 2.67857142857143  L 10 2.67857142857143  L 10 1.33928571428571  C 10 1.26674107142857  9.97526041666667 1.20396205357143  9.92578125 1.15094866071429  C 9.87630208333333 1.09793526785714  9.81770833333333 1.07142857142857  9.75 1.07142857142857  L 1.25 1.07142857142857  C 1.18229166666667 1.07142857142857  1.12369791666667 1.09793526785714  1.07421875 1.15094866071429  C 1.02473958333333 1.20396205357143  1 1.26674107142857  1 1.33928571428571  L 1 10.4464285714286  C 1 10.5189732142857  1.02473958333333 10.5817522321429  1.07421875 10.634765625  C 1.12369791666667 10.6877790178571  1.18229166666667 10.7142857142857  1.25 10.7142857142857  L 2.5 10.7142857142857  L 2.5 11.7857142857143  L 1.25 11.7857142857143  C 0.90625 11.7857142857143  0.611979166666667 11.6545758928571  0.3671875 11.3922991071429  C 0.122395833333333 11.1300223214286  0 10.8147321428571  0 10.4464285714286  L 0 1.33928571428571  C 0 0.970982142857144  0.122395833333333 0.655691964285713  0.3671875 0.393415178571429  C 0.611979166666667 0.131138392857143  0.90625 0  1.25 0  L 9.75 0  C 10.09375 0  10.3880208333333 0.131138392857143  10.6328125 0.393415178571429  Z " fill-rule="nonzero" fill="#000000" stroke="none" transform="matrix(1 0 0 1 1480 336 )" />
  </g>
</svg>