<?xml version="1.0" encoding="utf-8"?>
<svg version="1.1" xmlns:xlink="http://www.w3.org/1999/xlink" width="12px" height="12px" viewBox="1913 338  12 12" xmlns="http://www.w3.org/2000/svg">
  <path d="M 1919 338  C 1922.36 338  1925 340.64  1925 344  C 1925 347.36  1922.36 350  1919 350  C 1915.64 350  1913 347.36  1913 344  C 1913 340.64  1915.64 338  1919 338  Z " fill-rule="nonzero" fill="#ffffff" stroke="none" />
  <path d="M 1919 338.5  C 1922.08 338.5  1924.5 340.92  1924.5 344  C 1924.5 347.08  1922.08 349.5  1919 349.5  C 1915.92 349.5  1913.5 347.08  1913.5 344  C 1913.5 340.92  1915.92 338.5  1919 338.5  Z " stroke-width="1" stroke="#797979" fill="none" />
  <path d="M 1919 347  C 1917.32 347  1916 345.68  1916 344  C 1916 342.32  1917.32 341  1919 341  C 1920.68 341  1922 342.32  1922 344  C 1922 345.68  1920.68 347  1919 347  " fill-rule="nonzero" fill="#797979" stroke="none" />
</svg>