<?xml version="1.0" encoding="utf-8"?>
<svg version="1.1" xmlns:xlink="http://www.w3.org/1999/xlink" width="44px" height="38px" xmlns="http://www.w3.org/2000/svg">
  <g transform="matrix(1 0 0 1 -362 -264 )">
    <path d="M 362 264  L 406 264  L 406 302  L 362 302  L 362 264  " fill-rule="nonzero" fill="#cccccc" stroke="none" />
    <path d="M 365 267  L 403 267  L 403 299  L 365 299  L 365 267  " fill-rule="nonzero" fill="#ffffff" stroke="none" />
    <path d="M 387.73 275.4  C 386.134 275.4  384.88 274.146  384.88 272.55  C 384.88 270.954  386.134 269.7  387.73 269.7  C 389.326 269.7  390.58 270.954  390.58 272.55  C 390.58 274.146  389.326 275.4  387.73 275.4  " fill-rule="nonzero" fill="#cccccc" stroke="none" />
    <path d="M 366 298  L 366 281.5  L 375 274  L 387.6 282.454545454545  L 394.8 278.5  L 402 282.454545454545  L 402 298  L 366 298  " fill-rule="nonzero" fill="#169bd5" stroke="none" />
  </g>
</svg>