<?xml version="1.0" encoding="utf-8"?>
<svg version="1.1" xmlns:xlink="http://www.w3.org/1999/xlink" width="12px" height="12px" viewBox="1020 1121  12 12" xmlns="http://www.w3.org/2000/svg">
  <path d="M 1026 1121  C 1029.36 1121  1032 1123.64  1032 1127  C 1032 1130.36  1029.36 1133  1026 1133  C 1022.64 1133  1020 1130.36  1020 1127  C 1020 1123.64  1022.64 1121  1026 1121  Z " fill-rule="nonzero" fill="#f0f0f0" stroke="none" />
  <path d="M 1026 1121.5  C 1029.08 1121.5  1031.5 1123.92  1031.5 1127  C 1031.5 1130.08  1029.08 1132.5  1026 1132.5  C 1022.92 1132.5  1020.5 1130.08  1020.5 1127  C 1020.5 1123.92  1022.92 1121.5  1026 1121.5  Z " stroke-width="1" stroke="#797979" fill="none" />
  <path d="M 1026 1130  C 1024.32 1130  1023 1128.68  1023 1127  C 1023 1125.32  1024.32 1124  1026 1124  C 1027.68 1124  1029 1125.32  1029 1127  C 1029 1128.68  1027.68 1130  1026 1130  " fill-rule="nonzero" fill="#797979" stroke="none" />
</svg>