<?xml version="1.0" encoding="utf-8"?>
<svg version="1.1" xmlns:xlink="http://www.w3.org/1999/xlink" width="12px" height="12px" viewBox="2533 347  12 12" xmlns="http://www.w3.org/2000/svg">
  <path d="M 2539 347  C 2542.36 347  2545 349.64  2545 353  C 2545 356.36  2542.36 359  2539 359  C 2535.64 359  2533 356.36  2533 353  C 2533 349.64  2535.64 347  2539 347  Z " fill-rule="nonzero" fill="#ffffff" stroke="none" />
  <path d="M 2539 347.5  C 2542.08 347.5  2544.5 349.92  2544.5 353  C 2544.5 356.08  2542.08 358.5  2539 358.5  C 2535.92 358.5  2533.5 356.08  2533.5 353  C 2533.5 349.92  2535.92 347.5  2539 347.5  Z " stroke-width="1" stroke="#797979" fill="none" />
  <path d="M 2539 356  C 2537.32 356  2536 354.68  2536 353  C 2536 351.32  2537.32 350  2539 350  C 2540.68 350  2542 351.32  2542 353  C 2542 354.68  2540.68 356  2539 356  " fill-rule="nonzero" fill="#797979" stroke="none" />
</svg>