<?xml version="1.0" encoding="utf-8"?>
<svg version="1.1" xmlns:xlink="http://www.w3.org/1999/xlink" width="12px" height="12px" viewBox="1736 368  12 12" xmlns="http://www.w3.org/2000/svg">
  <path d="M 1742 368  C 1745.36 368  1748 370.64  1748 374  C 1748 377.36  1745.36 380  1742 380  C 1738.64 380  1736 377.36  1736 374  C 1736 370.64  1738.64 368  1742 368  Z " fill-rule="nonzero" fill="#f0f0f0" stroke="none" />
  <path d="M 1742 368.5  C 1745.08 368.5  1747.5 370.92  1747.5 374  C 1747.5 377.08  1745.08 379.5  1742 379.5  C 1738.92 379.5  1736.5 377.08  1736.5 374  C 1736.5 370.92  1738.92 368.5  1742 368.5  Z " stroke-width="1" stroke="#797979" fill="none" />
  <path d="M 1742 377  C 1740.32 377  1739 375.68  1739 374  C 1739 372.32  1740.32 371  1742 371  C 1743.68 371  1745 372.32  1745 374  C 1745 375.68  1743.68 377  1742 377  " fill-rule="nonzero" fill="#797979" stroke="none" />
</svg>