<?xml version="1.0" encoding="utf-8"?>
<svg version="1.1" xmlns:xlink="http://www.w3.org/1999/xlink" width="12px" height="12px" viewBox="2409 347  12 12" xmlns="http://www.w3.org/2000/svg">
  <path d="M 2415 347  C 2418.36 347  2421 349.64  2421 353  C 2421 356.36  2418.36 359  2415 359  C 2411.64 359  2409 356.36  2409 353  C 2409 349.64  2411.64 347  2415 347  Z " fill-rule="nonzero" fill="#ffffff" stroke="none" />
  <path d="M 2415 347.5  C 2418.08 347.5  2420.5 349.92  2420.5 353  C 2420.5 356.08  2418.08 358.5  2415 358.5  C 2411.92 358.5  2409.5 356.08  2409.5 353  C 2409.5 349.92  2411.92 347.5  2415 347.5  Z " stroke-width="1" stroke="#797979" fill="none" />
  <path d="M 2415 356  C 2413.32 356  2412 354.68  2412 353  C 2412 351.32  2413.32 350  2415 350  C 2416.68 350  2418 351.32  2418 353  C 2418 354.68  2416.68 356  2415 356  " fill-rule="nonzero" fill="#797979" stroke="none" />
</svg>