<?xml version="1.0" encoding="utf-8"?>
<svg version="1.1" xmlns:xlink="http://www.w3.org/1999/xlink" width="82px" height="41px" xmlns="http://www.w3.org/2000/svg">
  <g transform="matrix(1 0 0 1 -1074 -207 )">
    <path d="M 1074 207  L 1156 207  L 1156 248  L 1074 248  L 1074 207  " fill-rule="nonzero" fill="#cccccc" stroke="none" />
    <path d="M 1077 210  L 1153 210  L 1153 245  L 1077 245  L 1077 210  " fill-rule="nonzero" fill="#ffffff" stroke="none" />
    <path d="M 1119.715 219.3  C 1117.993 219.3  1116.64 217.947  1116.64 216.225  C 1116.64 214.503  1117.993 213.15  1119.715 213.15  C 1121.437 213.15  1122.79 214.503  1122.79 216.225  C 1122.79 217.947  1121.437 219.3  1119.715 219.3  " fill-rule="nonzero" fill="#cccccc" stroke="none" />
    <path d="M 1078 244  L 1078 225.85  L 1096.5 217.6  L 1122.4 234.1  L 1137.2 222.55  L 1152 234.1  L 1152 244  L 1078 244  " fill-rule="nonzero" fill="#169bd5" stroke="none" />
  </g>
</svg>