<?xml version="1.0" encoding="utf-8"?>
<svg version="1.1" xmlns:xlink="http://www.w3.org/1999/xlink" width="20px" height="18px" xmlns="http://www.w3.org/2000/svg">
  <g transform="matrix(1 0 0 1 -1806 -345 )">
    <path d="M 11.5494791666667 14.89453125  C 11.6276041666667 14.82421875  11.6666666666667 14.734375  11.6666666666667 14.625  L 11.6666666666667 12.375  C 11.6666666666667 12.265625  11.6276041666667 12.17578125  11.5494791666667 12.10546875  C 11.4713541666667 12.03515625  11.3715277777778 12  11.25 12  L 8.75 12  C 8.62847222222222 12  8.52864583333333 12.03515625  8.45052083333333 12.10546875  C 8.37239583333333 12.17578125  8.33333333333333 12.265625  8.33333333333333 12.375  L 8.33333333333333 14.625  C 8.33333333333333 14.734375  8.37239583333333 14.82421875  8.45052083333333 14.89453125  C 8.52864583333333 14.96484375  8.62847222222222 15  8.75 15  L 11.25 15  C 11.3715277777778 15  11.4713541666667 14.96484375  11.5494791666667 14.89453125  Z M 14.8372395833333 7.69921875  C 14.9457465277778 7.41015625  15 7.09375  15 6.75  C 15 6.0625  14.7591145833333 5.42578125  14.27734375 4.83984375  C 13.7955729166667 4.25390625  13.1944444444444 3.80078125  12.4739583333333 3.48046875  C 11.7534722222222 3.16015625  11.015625 3  10.2604166666667 3  C 8.15104166666667 3  6.54079861111111 3.83203125  5.4296875 5.49609375  C 5.29947916666667 5.68359375  5.33420138888889 5.84765625  5.53385416666667 5.98828125  L 7.25260416666667 7.16015625  C 7.31336805555556 7.20703125  7.39583333333333 7.23046875  7.5 7.23046875  C 7.63888888888889 7.23046875  7.74739583333333 7.18359375  7.82552083333333 7.08984375  C 8.28559027777778 6.55859375  8.65885416666667 6.19921875  8.9453125 6.01171875  C 9.24045138888889 5.82421875  9.61371527777778 5.73046875  10.0651041666667 5.73046875  C 10.4817708333333 5.73046875  10.8528645833333 5.83203125  11.1783854166667 6.03515625  C 11.50390625 6.23828125  11.6666666666667 6.46875  11.6666666666667 6.7265625  C 11.6666666666667 7.0234375  11.5798611111111 7.26171875  11.40625 7.44140625  C 11.2326388888889 7.62109375  10.9375 7.796875  10.5208333333333 7.96875  C 9.97395833333333 8.1875  9.47265625 8.525390625  9.01692708333333 8.982421875  C 8.56119791666667 9.439453125  8.33333333333333 9.9296875  8.33333333333333 10.453125  L 8.33333333333333 10.875  C 8.33333333333333 10.984375  8.37239583333333 11.07421875  8.45052083333333 11.14453125  C 8.52864583333333 11.21484375  8.62847222222222 11.25  8.75 11.25  L 11.25 11.25  C 11.3715277777778 11.25  11.4713541666667 11.21484375  11.5494791666667 11.14453125  C 11.6276041666667 11.07421875  11.6666666666667 10.984375  11.6666666666667 10.875  C 11.6666666666667 10.7265625  11.7599826388889 10.533203125  11.9466145833333 10.294921875  C 12.1332465277778 10.056640625  12.3697916666667 9.86328125  12.65625 9.71484375  C 12.9340277777778 9.57421875  13.1467013888889 9.462890625  13.2942708333333 9.380859375  C 13.4418402777778 9.298828125  13.6414930555556 9.162109375  13.8932291666667 8.970703125  C 14.1449652777778 8.779296875  14.3381076388889 8.591796875  14.47265625 8.408203125  C 14.6072048611111 8.224609375  14.7287326388889 7.98828125  14.8372395833333 7.69921875  Z M 18.6588541666667 4.482421875  C 19.5529513888889 5.861328125  20 7.3671875  20 9  C 20 10.6328125  19.5529513888889 12.138671875  18.6588541666667 13.517578125  C 17.7647569444444 14.896484375  16.5516493055556 15.98828125  15.01953125 16.79296875  C 13.4874131944444 17.59765625  11.8142361111111 18  10 18  C 8.18576388888889 18  6.51258680555556 17.59765625  4.98046875 16.79296875  C 3.44835069444444 15.98828125  2.23524305555556 14.896484375  1.34114583333333 13.517578125  C 0.447048611111111 12.138671875  0 10.6328125  0 9  C 0 7.3671875  0.447048611111111 5.861328125  1.34114583333333 4.482421875  C 2.23524305555556 3.103515625  3.44835069444444 2.01171875  4.98046875 1.20703125  C 6.51258680555556 0.402343749999998  8.18576388888889 0  10 0  C 11.8142361111111 0  13.4874131944444 0.402343749999998  15.01953125 1.20703125  C 16.5516493055556 2.01171875  17.7647569444444 3.103515625  18.6588541666667 4.482421875  Z " fill-rule="nonzero" fill="#000000" stroke="none" transform="matrix(1 0 0 1 1806 345 )" />
  </g>
</svg>