<?xml version="1.0" encoding="utf-8"?>
<svg version="1.1" xmlns:xlink="http://www.w3.org/1999/xlink" width="33px" height="25px" xmlns="http://www.w3.org/2000/svg">
  <g transform="matrix(1 0 0 1 -617 -211 )">
    <path d="M 617 211  L 650 211  L 650 236  L 617 236  L 617 211  " fill-rule="nonzero" fill="#cccccc" stroke="none" />
    <path d="M 619 213  L 648 213  L 648 234  L 619 234  L 619 213  " fill-rule="nonzero" fill="#ffffff" stroke="none" />
    <path d="M 636.035 218.5  C 634.985 218.5  634.16 217.675  634.16 216.625  C 634.16 215.575  634.985 214.75  636.035 214.75  C 637.085 214.75  637.91 215.575  637.91 216.625  C 637.91 217.675  637.085 218.5  636.035 218.5  " fill-rule="nonzero" fill="#cccccc" stroke="none" />
    <path d="M 620 234  L 620 223  L 627 218  L 636.8 224.909090909091  L 642.4 221  L 648 224.909090909091  L 648 234  L 620 234  " fill-rule="nonzero" fill="#169bd5" stroke="none" />
  </g>
</svg>