<?xml version="1.0" encoding="utf-8"?>
<svg version="1.1" xmlns:xlink="http://www.w3.org/1999/xlink" width="21px" height="20px" preserveAspectRatio="xMinYMid meet" viewBox="447 136  21 18" xmlns="http://www.w3.org/2000/svg">
  <path d="M 460 145  L 1725 145  L 1725 117  " stroke-width="2" stroke-dasharray="6,2" stroke="#000000" fill="none" />
  <path d="M 457.5 141.5  A 3.5 3.5 0 0 0 454 145 A 3.5 3.5 0 0 0 457.5 148.5 A 3.5 3.5 0 0 0 461 145 A 3.5 3.5 0 0 0 457.5 141.5 Z M 457.5 143.5  A 1.5 1.5 0 0 1 459 145 A 1.5 1.5 0 0 1 457.5 146.5 A 1.5 1.5 0 0 1 456 145 A 1.5 1.5 0 0 1 457.5 143.5 Z M 1732.6 118  L 1725 111  L 1717.4 118  L 1732.6 118  Z M 1727.8 116  L 1722.2 116  L 1725 114  L 1727.8 116  Z " fill-rule="nonzero" fill="#000000" stroke="none" />
</svg>