<?xml version="1.0" encoding="utf-8"?>
<svg version="1.1" xmlns:xlink="http://www.w3.org/1999/xlink" width="15px" height="16px" xmlns="http://www.w3.org/2000/svg">
  <g transform="matrix(1 0 0 1 -1693 -252 )">
    <path d="M 1700.5 252  C 1704.7 252  1708 255.52  1708 260  C 1708 264.48  1704.7 268  1700.5 268  C 1696.3 268  1693 264.48  1693 260  C 1693 255.52  1696.3 252  1700.5 252  Z " fill-rule="nonzero" fill="#ffffff" stroke="none" />
    <path d="M 1700.5 252.5  C 1704.42 252.5  1707.5 255.8  1707.5 260  C 1707.5 264.2  1704.42 267.5  1700.5 267.5  C 1696.58 267.5  1693.5 264.2  1693.5 260  C 1693.5 255.8  1696.58 252.5  1700.5 252.5  Z " stroke-width="1" stroke="#797979" fill="none" />
  </g>
</svg>