<?xml version="1.0" encoding="utf-8"?>
<svg version="1.1" xmlns:xlink="http://www.w3.org/1999/xlink" width="83px" height="89px" xmlns="http://www.w3.org/2000/svg">
  <g transform="matrix(1 0 0 1 -1719 -349 )">
    <path d="M 1719 349  L 1802 349  L 1802 438  L 1719 438  L 1719 349  " fill-rule="nonzero" fill="#cccccc" stroke="none" />
    <path d="M 1725 355  L 1796 355  L 1796 432  L 1725 432  L 1725 355  " fill-rule="nonzero" fill="#ffffff" stroke="none" />
    <path d="M 1768.385 374.8  C 1764.899 374.8  1762.16 372.061  1762.16 368.575  C 1762.16 365.089  1764.899 362.35  1768.385 362.35  C 1771.871 362.35  1774.61 365.089  1774.61 368.575  C 1774.61 372.061  1771.871 374.8  1768.385 374.8  " fill-rule="nonzero" fill="#cccccc" stroke="none" />
    <path d="M 1727 430  L 1727 389.85  L 1743.75 371.6  L 1767.2 386.2  L 1780.6 382.55  L 1794 386.2  L 1794 430  L 1727 430  " fill-rule="nonzero" fill="#169bd5" stroke="none" />
  </g>
</svg>