<?xml version="1.0" encoding="utf-8"?>
<svg version="1.1" xmlns:xlink="http://www.w3.org/1999/xlink" width="12px" height="12px" viewBox="1771 450  12 12" xmlns="http://www.w3.org/2000/svg">
  <path d="M 1777 450  C 1780.36 450  1783 452.64  1783 456  C 1783 459.36  1780.36 462  1777 462  C 1773.64 462  1771 459.36  1771 456  C 1771 452.64  1773.64 450  1777 450  Z " fill-rule="nonzero" fill="#ffffff" stroke="none" />
  <path d="M 1777 450.5  C 1780.08 450.5  1782.5 452.92  1782.5 456  C 1782.5 459.08  1780.08 461.5  1777 461.5  C 1773.92 461.5  1771.5 459.08  1771.5 456  C 1771.5 452.92  1773.92 450.5  1777 450.5  Z " stroke-width="1" stroke="#797979" fill="none" />
  <path d="M 1777 459  C 1775.32 459  1774 457.68  1774 456  C 1774 454.32  1775.32 453  1777 453  C 1778.68 453  1780 454.32  1780 456  C 1780 457.68  1778.68 459  1777 459  " fill-rule="nonzero" fill="#797979" stroke="none" />
</svg>