<?xml version="1.0" encoding="utf-8"?>
<svg version="1.1" xmlns:xlink="http://www.w3.org/1999/xlink" width="12px" height="12px" viewBox="1895 480  12 12" xmlns="http://www.w3.org/2000/svg">
  <path d="M 1901 480  C 1904.36 480  1907 482.64  1907 486  C 1907 489.36  1904.36 492  1901 492  C 1897.64 492  1895 489.36  1895 486  C 1895 482.64  1897.64 480  1901 480  Z " fill-rule="nonzero" fill="#ffffff" stroke="none" />
  <path d="M 1901 480.5  C 1904.08 480.5  1906.5 482.92  1906.5 486  C 1906.5 489.08  1904.08 491.5  1901 491.5  C 1897.92 491.5  1895.5 489.08  1895.5 486  C 1895.5 482.92  1897.92 480.5  1901 480.5  Z " stroke-width="1" stroke="#797979" fill="none" />
  <path d="M 1901 489  C 1899.32 489  1898 487.68  1898 486  C 1898 484.32  1899.32 483  1901 483  C 1902.68 483  1904 484.32  1904 486  C 1904 487.68  1902.68 489  1901 489  " fill-rule="nonzero" fill="#797979" stroke="none" />
</svg>