<?xml version="1.0" encoding="utf-8"?>
<svg version="1.1" xmlns:xlink="http://www.w3.org/1999/xlink" width="12px" height="12px" viewBox="2011 450  12 12" xmlns="http://www.w3.org/2000/svg">
  <path d="M 2017 450  C 2020.36 450  2023 452.64  2023 456  C 2023 459.36  2020.36 462  2017 462  C 2013.64 462  2011 459.36  2011 456  C 2011 452.64  2013.64 450  2017 450  Z " fill-rule="nonzero" fill="#f0f0f0" stroke="none" />
  <path d="M 2017 450.5  C 2020.08 450.5  2022.5 452.92  2022.5 456  C 2022.5 459.08  2020.08 461.5  2017 461.5  C 2013.92 461.5  2011.5 459.08  2011.5 456  C 2011.5 452.92  2013.92 450.5  2017 450.5  Z " stroke-width="1" stroke="#797979" fill="none" />
  <path d="M 2017 459  C 2015.32 459  2014 457.68  2014 456  C 2014 454.32  2015.32 453  2017 453  C 2018.68 453  2020 454.32  2020 456  C 2020 457.68  2018.68 459  2017 459  " fill-rule="nonzero" fill="#797979" stroke="none" />
</svg>