<?xml version="1.0" encoding="utf-8"?>
<svg version="1.1" xmlns:xlink="http://www.w3.org/1999/xlink" width="12px" height="12px" viewBox="1878 684  12 12" xmlns="http://www.w3.org/2000/svg">
  <path d="M 1884 684  C 1887.36 684  1890 686.64  1890 690  C 1890 693.36  1887.36 696  1884 696  C 1880.64 696  1878 693.36  1878 690  C 1878 686.64  1880.64 684  1884 684  Z " fill-rule="nonzero" fill="#ffffff" stroke="none" />
  <path d="M 1884 684.5  C 1887.08 684.5  1889.5 686.92  1889.5 690  C 1889.5 693.08  1887.08 695.5  1884 695.5  C 1880.92 695.5  1878.5 693.08  1878.5 690  C 1878.5 686.92  1880.92 684.5  1884 684.5  Z " stroke-width="1" stroke="#797979" fill="none" />
  <path d="M 1884 693  C 1882.32 693  1881 691.68  1881 690  C 1881 688.32  1882.32 687  1884 687  C 1885.68 687  1887 688.32  1887 690  C 1887 691.68  1885.68 693  1884 693  " fill-rule="nonzero" fill="#797979" stroke="none" />
</svg>