<?xml version="1.0" encoding="utf-8"?>
<svg version="1.1" xmlns:xlink="http://www.w3.org/1999/xlink" width="12px" height="12px" viewBox="2393 636  12 12" xmlns="http://www.w3.org/2000/svg">
  <path d="M 2399 636  C 2402.36 636  2405 638.64  2405 642  C 2405 645.36  2402.36 648  2399 648  C 2395.64 648  2393 645.36  2393 642  C 2393 638.64  2395.64 636  2399 636  Z " fill-rule="nonzero" fill="#f0f0f0" stroke="none" />
  <path d="M 2399 636.5  C 2402.08 636.5  2404.5 638.92  2404.5 642  C 2404.5 645.08  2402.08 647.5  2399 647.5  C 2395.92 647.5  2393.5 645.08  2393.5 642  C 2393.5 638.92  2395.92 636.5  2399 636.5  Z " stroke-width="1" stroke="#797979" fill="none" />
  <path d="M 2399 645  C 2397.32 645  2396 643.68  2396 642  C 2396 640.32  2397.32 639  2399 639  C 2400.68 639  2402 640.32  2402 642  C 2402 643.68  2400.68 645  2399 645  " fill-rule="nonzero" fill="#797979" stroke="none" />
</svg>