<?xml version="1.0" encoding="utf-8"?>
<svg version="1.1" xmlns:xlink="http://www.w3.org/1999/xlink" width="12px" height="12px" viewBox="2422 459  12 12" xmlns="http://www.w3.org/2000/svg">
  <path d="M 2428 459  C 2431.36 459  2434 461.64  2434 465  C 2434 468.36  2431.36 471  2428 471  C 2424.64 471  2422 468.36  2422 465  C 2422 461.64  2424.64 459  2428 459  Z " fill-rule="nonzero" fill="#ffffff" stroke="none" />
  <path d="M 2428 459.5  C 2431.08 459.5  2433.5 461.92  2433.5 465  C 2433.5 468.08  2431.08 470.5  2428 470.5  C 2424.92 470.5  2422.5 468.08  2422.5 465  C 2422.5 461.92  2424.92 459.5  2428 459.5  Z " stroke-width="1" stroke="#797979" fill="none" />
  <path d="M 2428 468  C 2426.32 468  2425 466.68  2425 465  C 2425 463.32  2426.32 462  2428 462  C 2429.68 462  2431 463.32  2431 465  C 2431 466.68  2429.68 468  2428 468  " fill-rule="nonzero" fill="#797979" stroke="none" />
</svg>