<?xml version="1.0" encoding="utf-8"?>
<svg version="1.1" xmlns:xlink="http://www.w3.org/1999/xlink" width="12px" height="12px" viewBox="1878 613  12 12" xmlns="http://www.w3.org/2000/svg">
  <path d="M 1884 613  C 1887.36 613  1890 615.64  1890 619  C 1890 622.36  1887.36 625  1884 625  C 1880.64 625  1878 622.36  1878 619  C 1878 615.64  1880.64 613  1884 613  Z " fill-rule="nonzero" fill="#f0f0f0" stroke="none" />
  <path d="M 1884 613.5  C 1887.08 613.5  1889.5 615.92  1889.5 619  C 1889.5 622.08  1887.08 624.5  1884 624.5  C 1880.92 624.5  1878.5 622.08  1878.5 619  C 1878.5 615.92  1880.92 613.5  1884 613.5  Z " stroke-width="1" stroke="#797979" fill="none" />
  <path d="M 1884 622  C 1882.32 622  1881 620.68  1881 619  C 1881 617.32  1882.32 616  1884 616  C 1885.68 616  1887 617.32  1887 619  C 1887 620.68  1885.68 622  1884 622  " fill-rule="nonzero" fill="#797979" stroke="none" />
</svg>