<?xml version="1.0" encoding="utf-8"?>
<svg version="1.1" xmlns:xlink="http://www.w3.org/1999/xlink" width="12px" height="12px" viewBox="2010 684  12 12" xmlns="http://www.w3.org/2000/svg">
  <path d="M 2016 684  C 2019.36 684  2022 686.64  2022 690  C 2022 693.36  2019.36 696  2016 696  C 2012.64 696  2010 693.36  2010 690  C 2010 686.64  2012.64 684  2016 684  Z " fill-rule="nonzero" fill="#f0f0f0" stroke="none" />
  <path d="M 2016 684.5  C 2019.08 684.5  2021.5 686.92  2021.5 690  C 2021.5 693.08  2019.08 695.5  2016 695.5  C 2012.92 695.5  2010.5 693.08  2010.5 690  C 2010.5 686.92  2012.92 684.5  2016 684.5  Z " stroke-width="1" stroke="#797979" fill="none" />
  <path d="M 2016 693  C 2014.32 693  2013 691.68  2013 690  C 2013 688.32  2014.32 687  2016 687  C 2017.68 687  2019 688.32  2019 690  C 2019 691.68  2017.68 693  2016 693  " fill-rule="nonzero" fill="#797979" stroke="none" />
</svg>