<?xml version="1.0" encoding="utf-8"?>
<svg version="1.1" xmlns:xlink="http://www.w3.org/1999/xlink" width="12px" height="12px" viewBox="1879 450  12 12" xmlns="http://www.w3.org/2000/svg">
  <path d="M 1885 450  C 1888.36 450  1891 452.64  1891 456  C 1891 459.36  1888.36 462  1885 462  C 1881.64 462  1879 459.36  1879 456  C 1879 452.64  1881.64 450  1885 450  Z " fill-rule="nonzero" fill="#f0f0f0" stroke="none" />
  <path d="M 1885 450.5  C 1888.08 450.5  1890.5 452.92  1890.5 456  C 1890.5 459.08  1888.08 461.5  1885 461.5  C 1881.92 461.5  1879.5 459.08  1879.5 456  C 1879.5 452.92  1881.92 450.5  1885 450.5  Z " stroke-width="1" stroke="#797979" fill="none" />
  <path d="M 1885 459  C 1883.32 459  1882 457.68  1882 456  C 1882 454.32  1883.32 453  1885 453  C 1886.68 453  1888 454.32  1888 456  C 1888 457.68  1886.68 459  1885 459  " fill-rule="nonzero" fill="#797979" stroke="none" />
</svg>