<?xml version="1.0" encoding="utf-8"?>
<svg version="1.1" xmlns:xlink="http://www.w3.org/1999/xlink" width="12px" height="12px" viewBox="2521 559  12 12" xmlns="http://www.w3.org/2000/svg">
  <path d="M 2527 559  C 2530.36 559  2533 561.64  2533 565  C 2533 568.36  2530.36 571  2527 571  C 2523.64 571  2521 568.36  2521 565  C 2521 561.64  2523.64 559  2527 559  Z " fill-rule="nonzero" fill="#f0f0f0" stroke="none" />
  <path d="M 2527 559.5  C 2530.08 559.5  2532.5 561.92  2532.5 565  C 2532.5 568.08  2530.08 570.5  2527 570.5  C 2523.92 570.5  2521.5 568.08  2521.5 565  C 2521.5 561.92  2523.92 559.5  2527 559.5  Z " stroke-width="1" stroke="#797979" fill="none" />
  <path d="M 2527 568  C 2525.32 568  2524 566.68  2524 565  C 2524 563.32  2525.32 562  2527 562  C 2528.68 562  2530 563.32  2530 565  C 2530 566.68  2528.68 568  2527 568  " fill-rule="nonzero" fill="#797979" stroke="none" />
</svg>