<?xml version="1.0" encoding="utf-8"?>
<svg version="1.1" xmlns:xlink="http://www.w3.org/1999/xlink" width="12px" height="12px" viewBox="2428 559  12 12" xmlns="http://www.w3.org/2000/svg">
  <path d="M 2434 559  C 2437.36 559  2440 561.64  2440 565  C 2440 568.36  2437.36 571  2434 571  C 2430.64 571  2428 568.36  2428 565  C 2428 561.64  2430.64 559  2434 559  Z " fill-rule="nonzero" fill="#f0f0f0" stroke="none" />
  <path d="M 2434 559.5  C 2437.08 559.5  2439.5 561.92  2439.5 565  C 2439.5 568.08  2437.08 570.5  2434 570.5  C 2430.92 570.5  2428.5 568.08  2428.5 565  C 2428.5 561.92  2430.92 559.5  2434 559.5  Z " stroke-width="1" stroke="#797979" fill="none" />
  <path d="M 2434 568  C 2432.32 568  2431 566.68  2431 565  C 2431 563.32  2432.32 562  2434 562  C 2435.68 562  2437 563.32  2437 565  C 2437 566.68  2435.68 568  2434 568  " fill-rule="nonzero" fill="#797979" stroke="none" />
</svg>