<?xml version="1.0" encoding="utf-8"?>
<svg version="1.1" xmlns:xlink="http://www.w3.org/1999/xlink" width="12px" height="12px" viewBox="2352 559  12 12" xmlns="http://www.w3.org/2000/svg">
  <path d="M 2358 559  C 2361.36 559  2364 561.64  2364 565  C 2364 568.36  2361.36 571  2358 571  C 2354.64 571  2352 568.36  2352 565  C 2352 561.64  2354.64 559  2358 559  Z " fill-rule="nonzero" fill="#f0f0f0" stroke="none" />
  <path d="M 2358 559.5  C 2361.08 559.5  2363.5 561.92  2363.5 565  C 2363.5 568.08  2361.08 570.5  2358 570.5  C 2354.92 570.5  2352.5 568.08  2352.5 565  C 2352.5 561.92  2354.92 559.5  2358 559.5  Z " stroke-width="1" stroke="#797979" fill="none" />
  <path d="M 2358 568  C 2356.32 568  2355 566.68  2355 565  C 2355 563.32  2356.32 562  2358 562  C 2359.68 562  2361 563.32  2361 565  C 2361 566.68  2359.68 568  2358 568  " fill-rule="nonzero" fill="#797979" stroke="none" />
</svg>