<?xml version="1.0" encoding="utf-8"?>
<svg version="1.1" xmlns:xlink="http://www.w3.org/1999/xlink" width="12px" height="12px" viewBox="1770 613  12 12" xmlns="http://www.w3.org/2000/svg">
  <path d="M 1776 613  C 1779.36 613  1782 615.64  1782 619  C 1782 622.36  1779.36 625  1776 625  C 1772.64 625  1770 622.36  1770 619  C 1770 615.64  1772.64 613  1776 613  Z " fill-rule="nonzero" fill="#f0f0f0" stroke="none" />
  <path d="M 1776 613.5  C 1779.08 613.5  1781.5 615.92  1781.5 619  C 1781.5 622.08  1779.08 624.5  1776 624.5  C 1772.92 624.5  1770.5 622.08  1770.5 619  C 1770.5 615.92  1772.92 613.5  1776 613.5  Z " stroke-width="1" stroke="#797979" fill="none" />
  <path d="M 1776 622  C 1774.32 622  1773 620.68  1773 619  C 1773 617.32  1774.32 616  1776 616  C 1777.68 616  1779 617.32  1779 619  C 1779 620.68  1777.68 622  1776 622  " fill-rule="nonzero" fill="#797979" stroke="none" />
</svg>