<?xml version="1.0" encoding="utf-8"?>
<svg version="1.1" xmlns:xlink="http://www.w3.org/1999/xlink" width="12px" height="12px" viewBox="2010 613  12 12" xmlns="http://www.w3.org/2000/svg">
  <path d="M 2016 613  C 2019.36 613  2022 615.64  2022 619  C 2022 622.36  2019.36 625  2016 625  C 2012.64 625  2010 622.36  2010 619  C 2010 615.64  2012.64 613  2016 613  Z " fill-rule="nonzero" fill="#ffffff" stroke="none" />
  <path d="M 2016 613.5  C 2019.08 613.5  2021.5 615.92  2021.5 619  C 2021.5 622.08  2019.08 624.5  2016 624.5  C 2012.92 624.5  2010.5 622.08  2010.5 619  C 2010.5 615.92  2012.92 613.5  2016 613.5  Z " stroke-width="1" stroke="#797979" fill="none" />
  <path d="M 2016 622  C 2014.32 622  2013 620.68  2013 619  C 2013 617.32  2014.32 616  2016 616  C 2017.68 616  2019 617.32  2019 619  C 2019 620.68  2017.68 622  2016 622  " fill-rule="nonzero" fill="#797979" stroke="none" />
</svg>