<?xml version="1.0" encoding="utf-8"?>
<svg version="1.1" xmlns:xlink="http://www.w3.org/1999/xlink" width="12px" height="12px" viewBox="2568 736  12 12" xmlns="http://www.w3.org/2000/svg">
  <path d="M 2574 736  C 2577.36 736  2580 738.64  2580 742  C 2580 745.36  2577.36 748  2574 748  C 2570.64 748  2568 745.36  2568 742  C 2568 738.64  2570.64 736  2574 736  Z " fill-rule="nonzero" fill="#f0f0f0" stroke="none" />
  <path d="M 2574 736.5  C 2577.08 736.5  2579.5 738.92  2579.5 742  C 2579.5 745.08  2577.08 747.5  2574 747.5  C 2570.92 747.5  2568.5 745.08  2568.5 742  C 2568.5 738.92  2570.92 736.5  2574 736.5  Z " stroke-width="1" stroke="#797979" fill="none" />
  <path d="M 2574 745  C 2572.32 745  2571 743.68  2571 742  C 2571 740.32  2572.32 739  2574 739  C 2575.68 739  2577 740.32  2577 742  C 2577 743.68  2575.68 745  2574 745  " fill-rule="nonzero" fill="#797979" stroke="none" />
</svg>