<?xml version="1.0" encoding="utf-8"?>
<svg version="1.1" xmlns:xlink="http://www.w3.org/1999/xlink" width="12px" height="12px" viewBox="2475 736  12 12" xmlns="http://www.w3.org/2000/svg">
  <path d="M 2481 736  C 2484.36 736  2487 738.64  2487 742  C 2487 745.36  2484.36 748  2481 748  C 2477.64 748  2475 745.36  2475 742  C 2475 738.64  2477.64 736  2481 736  Z " fill-rule="nonzero" fill="#f0f0f0" stroke="none" />
  <path d="M 2481 736.5  C 2484.08 736.5  2486.5 738.92  2486.5 742  C 2486.5 745.08  2484.08 747.5  2481 747.5  C 2477.92 747.5  2475.5 745.08  2475.5 742  C 2475.5 738.92  2477.92 736.5  2481 736.5  Z " stroke-width="1" stroke="#797979" fill="none" />
  <path d="M 2481 745  C 2479.32 745  2478 743.68  2478 742  C 2478 740.32  2479.32 739  2481 739  C 2482.68 739  2484 740.32  2484 742  C 2484 743.68  2482.68 745  2481 745  " fill-rule="nonzero" fill="#797979" stroke="none" />
</svg>