<?xml version="1.0" encoding="utf-8"?>
<svg version="1.1" xmlns:xlink="http://www.w3.org/1999/xlink" width="12px" height="12px" viewBox="2399 736  12 12" xmlns="http://www.w3.org/2000/svg">
  <path d="M 2405 736  C 2408.36 736  2411 738.64  2411 742  C 2411 745.36  2408.36 748  2405 748  C 2401.64 748  2399 745.36  2399 742  C 2399 738.64  2401.64 736  2405 736  Z " fill-rule="nonzero" fill="#f0f0f0" stroke="none" />
  <path d="M 2405 736.5  C 2408.08 736.5  2410.5 738.92  2410.5 742  C 2410.5 745.08  2408.08 747.5  2405 747.5  C 2401.92 747.5  2399.5 745.08  2399.5 742  C 2399.5 738.92  2401.92 736.5  2405 736.5  Z " stroke-width="1" stroke="#797979" fill="none" />
  <path d="M 2405 745  C 2403.32 745  2402 743.68  2402 742  C 2402 740.32  2403.32 739  2405 739  C 2406.68 739  2408 740.32  2408 742  C 2408 743.68  2406.68 745  2405 745  " fill-rule="nonzero" fill="#797979" stroke="none" />
</svg>