<?xml version="1.0" encoding="utf-8"?>
<svg version="1.1" xmlns:xlink="http://www.w3.org/1999/xlink" width="82px" height="41px" xmlns="http://www.w3.org/2000/svg">
  <g transform="matrix(1 0 0 1 -833 -222 )">
    <path d="M 833 222  L 915 222  L 915 263  L 833 263  L 833 222  " fill-rule="nonzero" fill="#cccccc" stroke="none" />
    <path d="M 836 225  L 912 225  L 912 260  L 836 260  L 836 225  " fill-rule="nonzero" fill="#ffffff" stroke="none" />
    <path d="M 878.715 234.3  C 876.993 234.3  875.64 232.947  875.64 231.225  C 875.64 229.503  876.993 228.15  878.715 228.15  C 880.437 228.15  881.79 229.503  881.79 231.225  C 881.79 232.947  880.437 234.3  878.715 234.3  " fill-rule="nonzero" fill="#cccccc" stroke="none" />
    <path d="M 837 259  L 837 240.85  L 855.5 232.6  L 881.4 249.1  L 896.2 237.55  L 911 249.1  L 911 259  L 837 259  " fill-rule="nonzero" fill="#169bd5" stroke="none" />
  </g>
</svg>