<?xml version="1.0" encoding="utf-8"?>
<svg version="1.1" xmlns:xlink="http://www.w3.org/1999/xlink" width="12px" height="12px" viewBox="1784 481  12 12" xmlns="http://www.w3.org/2000/svg">
  <path d="M 1790 481  C 1793.36 481  1796 483.64  1796 487  C 1796 490.36  1793.36 493  1790 493  C 1786.64 493  1784 490.36  1784 487  C 1784 483.64  1786.64 481  1790 481  Z " fill-rule="nonzero" fill="#f0f0f0" stroke="none" />
  <path d="M 1790 481.5  C 1793.08 481.5  1795.5 483.92  1795.5 487  C 1795.5 490.08  1793.08 492.5  1790 492.5  C 1786.92 492.5  1784.5 490.08  1784.5 487  C 1784.5 483.92  1786.92 481.5  1790 481.5  Z " stroke-width="1" stroke="#797979" fill="none" />
  <path d="M 1790 490  C 1788.32 490  1787 488.68  1787 487  C 1787 485.32  1788.32 484  1790 484  C 1791.68 484  1793 485.32  1793 487  C 1793 488.68  1791.68 490  1790 490  " fill-rule="nonzero" fill="#797979" stroke="none" />
</svg>