<?xml version="1.0" encoding="utf-8"?>
<svg version="1.1" xmlns:xlink="http://www.w3.org/1999/xlink" width="12px" height="12px" viewBox="1895 450  12 12" xmlns="http://www.w3.org/2000/svg">
  <path d="M 1901 450  C 1904.36 450  1907 452.64  1907 456  C 1907 459.36  1904.36 462  1901 462  C 1897.64 462  1895 459.36  1895 456  C 1895 452.64  1897.64 450  1901 450  Z " fill-rule="nonzero" fill="#f0f0f0" stroke="none" />
  <path d="M 1901 450.5  C 1904.08 450.5  1906.5 452.92  1906.5 456  C 1906.5 459.08  1904.08 461.5  1901 461.5  C 1897.92 461.5  1895.5 459.08  1895.5 456  C 1895.5 452.92  1897.92 450.5  1901 450.5  Z " stroke-width="1" stroke="#797979" fill="none" />
  <path d="M 1901 459  C 1899.32 459  1898 457.68  1898 456  C 1898 454.32  1899.32 453  1901 453  C 1902.68 453  1904 454.32  1904 456  C 1904 457.68  1902.68 459  1901 459  " fill-rule="nonzero" fill="#797979" stroke="none" />
</svg>