<?xml version="1.0" encoding="utf-8"?>
<svg version="1.1" xmlns:xlink="http://www.w3.org/1999/xlink" width="12px" height="12px" viewBox="1908 481  12 12" xmlns="http://www.w3.org/2000/svg">
  <path d="M 1914 481  C 1917.36 481  1920 483.64  1920 487  C 1920 490.36  1917.36 493  1914 493  C 1910.64 493  1908 490.36  1908 487  C 1908 483.64  1910.64 481  1914 481  Z " fill-rule="nonzero" fill="#ffffff" stroke="none" />
  <path d="M 1914 481.5  C 1917.08 481.5  1919.5 483.92  1919.5 487  C 1919.5 490.08  1917.08 492.5  1914 492.5  C 1910.92 492.5  1908.5 490.08  1908.5 487  C 1908.5 483.92  1910.92 481.5  1914 481.5  Z " stroke-width="1" stroke="#797979" fill="none" />
  <path d="M 1914 490  C 1912.32 490  1911 488.68  1911 487  C 1911 485.32  1912.32 484  1914 484  C 1915.68 484  1917 485.32  1917 487  C 1917 488.68  1915.68 490  1914 490  " fill-rule="nonzero" fill="#797979" stroke="none" />
</svg>