<?xml version="1.0" encoding="utf-8"?>
<svg version="1.1" xmlns:xlink="http://www.w3.org/1999/xlink" width="12px" height="12px" viewBox="1784 508  12 12" xmlns="http://www.w3.org/2000/svg">
  <path d="M 1790 508  C 1793.36 508  1796 510.64  1796 514  C 1796 517.36  1793.36 520  1790 520  C 1786.64 520  1784 517.36  1784 514  C 1784 510.64  1786.64 508  1790 508  Z " fill-rule="nonzero" fill="#f0f0f0" stroke="none" />
  <path d="M 1790 508.5  C 1793.08 508.5  1795.5 510.92  1795.5 514  C 1795.5 517.08  1793.08 519.5  1790 519.5  C 1786.92 519.5  1784.5 517.08  1784.5 514  C 1784.5 510.92  1786.92 508.5  1790 508.5  Z " stroke-width="1" stroke="#797979" fill="none" />
  <path d="M 1790 517  C 1788.32 517  1787 515.68  1787 514  C 1787 512.32  1788.32 511  1790 511  C 1791.68 511  1793 512.32  1793 514  C 1793 515.68  1791.68 517  1790 517  " fill-rule="nonzero" fill="#797979" stroke="none" />
</svg>