<?xml version="1.0" encoding="utf-8"?>
<svg version="1.1" xmlns:xlink="http://www.w3.org/1999/xlink" width="12px" height="12px" viewBox="1895 522  12 12" xmlns="http://www.w3.org/2000/svg">
  <path d="M 1901 522  C 1904.36 522  1907 524.64  1907 528  C 1907 531.36  1904.36 534  1901 534  C 1897.64 534  1895 531.36  1895 528  C 1895 524.64  1897.64 522  1901 522  Z " fill-rule="nonzero" fill="#ffffff" stroke="none" />
  <path d="M 1901 522.5  C 1904.08 522.5  1906.5 524.92  1906.5 528  C 1906.5 531.08  1904.08 533.5  1901 533.5  C 1897.92 533.5  1895.5 531.08  1895.5 528  C 1895.5 524.92  1897.92 522.5  1901 522.5  Z " stroke-width="1" stroke="#797979" fill="none" />
  <path d="M 1901 531  C 1899.32 531  1898 529.68  1898 528  C 1898 526.32  1899.32 525  1901 525  C 1902.68 525  1904 526.32  1904 528  C 1904 529.68  1902.68 531  1901 531  " fill-rule="nonzero" fill="#797979" stroke="none" />
</svg>