<?xml version="1.0" encoding="utf-8"?>
<svg version="1.1" xmlns:xlink="http://www.w3.org/1999/xlink" width="12px" height="12px" viewBox="1908 508  12 12" xmlns="http://www.w3.org/2000/svg">
  <path d="M 1914 508  C 1917.36 508  1920 510.64  1920 514  C 1920 517.36  1917.36 520  1914 520  C 1910.64 520  1908 517.36  1908 514  C 1908 510.64  1910.64 508  1914 508  Z " fill-rule="nonzero" fill="#f0f0f0" stroke="none" />
  <path d="M 1914 508.5  C 1917.08 508.5  1919.5 510.92  1919.5 514  C 1919.5 517.08  1917.08 519.5  1914 519.5  C 1910.92 519.5  1908.5 517.08  1908.5 514  C 1908.5 510.92  1910.92 508.5  1914 508.5  Z " stroke-width="1" stroke="#797979" fill="none" />
  <path d="M 1914 517  C 1912.32 517  1911 515.68  1911 514  C 1911 512.32  1912.32 511  1914 511  C 1915.68 511  1917 512.32  1917 514  C 1917 515.68  1915.68 517  1914 517  " fill-rule="nonzero" fill="#797979" stroke="none" />
</svg>