<?xml version="1.0" encoding="utf-8"?>
<svg version="1.1" xmlns:xlink="http://www.w3.org/1999/xlink" width="12px" height="12px" viewBox="2444 490  12 12" xmlns="http://www.w3.org/2000/svg">
  <path d="M 2450 490  C 2453.36 490  2456 492.64  2456 496  C 2456 499.36  2453.36 502  2450 502  C 2446.64 502  2444 499.36  2444 496  C 2444 492.64  2446.64 490  2450 490  Z " fill-rule="nonzero" fill="#ffffff" stroke="none" />
  <path d="M 2450 490.5  C 2453.08 490.5  2455.5 492.92  2455.5 496  C 2455.5 499.08  2453.08 501.5  2450 501.5  C 2446.92 501.5  2444.5 499.08  2444.5 496  C 2444.5 492.92  2446.92 490.5  2450 490.5  Z " stroke-width="1" stroke="#797979" fill="none" />
  <path d="M 2450 499  C 2448.32 499  2447 497.68  2447 496  C 2447 494.32  2448.32 493  2450 493  C 2451.68 493  2453 494.32  2453 496  C 2453 497.68  2451.68 499  2450 499  " fill-rule="nonzero" fill="#797979" stroke="none" />
</svg>