<?xml version="1.0" encoding="utf-8"?>
<svg version="1.1" xmlns:xlink="http://www.w3.org/1999/xlink" width="12px" height="12px" viewBox="2431 459  12 12" xmlns="http://www.w3.org/2000/svg">
  <path d="M 2437 459  C 2440.36 459  2443 461.64  2443 465  C 2443 468.36  2440.36 471  2437 471  C 2433.64 471  2431 468.36  2431 465  C 2431 461.64  2433.64 459  2437 459  Z " fill-rule="nonzero" fill="#ffffff" stroke="none" />
  <path d="M 2437 459.5  C 2440.08 459.5  2442.5 461.92  2442.5 465  C 2442.5 468.08  2440.08 470.5  2437 470.5  C 2433.92 470.5  2431.5 468.08  2431.5 465  C 2431.5 461.92  2433.92 459.5  2437 459.5  Z " stroke-width="1" stroke="#797979" fill="none" />
  <path d="M 2437 468  C 2435.32 468  2434 466.68  2434 465  C 2434 463.32  2435.32 462  2437 462  C 2438.68 462  2440 463.32  2440 465  C 2440 466.68  2438.68 468  2437 468  " fill-rule="nonzero" fill="#797979" stroke="none" />
</svg>