<?xml version="1.0" encoding="utf-8"?>
<svg version="1.1" xmlns:xlink="http://www.w3.org/1999/xlink" width="12px" height="12px" viewBox="2555 459  12 12" xmlns="http://www.w3.org/2000/svg">
  <path d="M 2561 459  C 2564.36 459  2567 461.64  2567 465  C 2567 468.36  2564.36 471  2561 471  C 2557.64 471  2555 468.36  2555 465  C 2555 461.64  2557.64 459  2561 459  Z " fill-rule="nonzero" fill="#ffffff" stroke="none" />
  <path d="M 2561 459.5  C 2564.08 459.5  2566.5 461.92  2566.5 465  C 2566.5 468.08  2564.08 470.5  2561 470.5  C 2557.92 470.5  2555.5 468.08  2555.5 465  C 2555.5 461.92  2557.92 459.5  2561 459.5  Z " stroke-width="1" stroke="#797979" fill="none" />
  <path d="M 2561 468  C 2559.32 468  2558 466.68  2558 465  C 2558 463.32  2559.32 462  2561 462  C 2562.68 462  2564 463.32  2564 465  C 2564 466.68  2562.68 468  2561 468  " fill-rule="nonzero" fill="#797979" stroke="none" />
</svg>