<?xml version="1.0" encoding="utf-8"?>
<svg version="1.1" xmlns:xlink="http://www.w3.org/1999/xlink" width="41px" height="30px" xmlns="http://www.w3.org/2000/svg">
  <g transform="matrix(1 0 0 1 -571 -291 )">
    <path d="M 571 291  L 612 291  L 612 321  L 571 321  L 571 291  " fill-rule="nonzero" fill="#cccccc" stroke="none" />
    <path d="M 573 293  L 610 293  L 610 319  L 573 319  L 573 293  " fill-rule="nonzero" fill="#ffffff" stroke="none" />
    <path d="M 594.57 300  C 593.31 300  592.32 299.01  592.32 297.75  C 592.32 296.49  593.31 295.5  594.57 295.5  C 595.83 295.5  596.82 296.49  596.82 297.75  C 596.82 299.01  595.83 300  594.57 300  " fill-rule="nonzero" fill="#cccccc" stroke="none" />
    <path d="M 574 318  L 574 304.8  L 582.75 298.8  L 595 307.463414634146  L 602 302.4  L 609 307.463414634146  L 609 318  L 574 318  " fill-rule="nonzero" fill="#169bd5" stroke="none" />
  </g>
</svg>