<?xml version="1.0" encoding="utf-8"?>
<svg version="1.1" xmlns:xlink="http://www.w3.org/1999/xlink" width="41px" height="30px" xmlns="http://www.w3.org/2000/svg">
  <g transform="matrix(1 0 0 1 -550 -291 )">
    <path d="M 550 291  L 591 291  L 591 321  L 550 321  L 550 291  " fill-rule="nonzero" fill="#cccccc" stroke="none" />
    <path d="M 552 293  L 589 293  L 589 319  L 552 319  L 552 293  " fill-rule="nonzero" fill="#ffffff" stroke="none" />
    <path d="M 573.57 300  C 572.31 300  571.32 299.01  571.32 297.75  C 571.32 296.49  572.31 295.5  573.57 295.5  C 574.83 295.5  575.82 296.49  575.82 297.75  C 575.82 299.01  574.83 300  573.57 300  " fill-rule="nonzero" fill="#cccccc" stroke="none" />
    <path d="M 553 318  L 553 304.8  L 561.75 298.8  L 574 307.463414634146  L 581 302.4  L 588 307.463414634146  L 588 318  L 553 318  " fill-rule="nonzero" fill="#169bd5" stroke="none" />
  </g>
</svg>