<?xml version="1.0" encoding="utf-8"?>
<svg version="1.1" xmlns:xlink="http://www.w3.org/1999/xlink" width="41px" height="30px" xmlns="http://www.w3.org/2000/svg">
  <g transform="matrix(1 0 0 1 -631 -291 )">
    <path d="M 631 291  L 672 291  L 672 321  L 631 321  L 631 291  " fill-rule="nonzero" fill="#cccccc" stroke="none" />
    <path d="M 633 293  L 670 293  L 670 319  L 633 319  L 633 293  " fill-rule="nonzero" fill="#ffffff" stroke="none" />
    <path d="M 654.57 300  C 653.31 300  652.32 299.01  652.32 297.75  C 652.32 296.49  653.31 295.5  654.57 295.5  C 655.83 295.5  656.82 296.49  656.82 297.75  C 656.82 299.01  655.83 300  654.57 300  " fill-rule="nonzero" fill="#cccccc" stroke="none" />
    <path d="M 634 318  L 634 304.8  L 642.75 298.8  L 655 307.463414634146  L 662 302.4  L 669 307.463414634146  L 669 318  L 634 318  " fill-rule="nonzero" fill="#169bd5" stroke="none" />
  </g>
</svg>