<?xml version="1.0" encoding="utf-8"?>
<svg version="1.1" xmlns:xlink="http://www.w3.org/1999/xlink" width="27px" height="31px" xmlns="http://www.w3.org/2000/svg">
  <g transform="matrix(1 0 0 1 -540 -1195 )">
    <path d="M 26.3636363636364 23.1717171717172  C 26.7878787878788 23.658810325477  27 24.2502805836139  27 24.9461279461279  C 27 25.641975308642  26.7878787878788 26.2334455667789  26.3636363636364 26.7205387205387  L 23.2727272727273 30.2693602693603  C 22.8484848484849 30.7564534231201  22.3333333333333 31  21.7272727272727 31  C 21.1212121212121 31  20.6060606060606 30.7564534231201  20.1818181818182 30.2693602693603  L 13.5 22.5976430976431  L 6.81818181818182 30.2693602693603  C 6.39393939393939 30.7564534231201  5.87878787878788 31  5.27272727272727 31  C 4.66666666666667 31  4.15151515151515 30.7564534231201  3.72727272727273 30.2693602693603  L 0.636363636363636 26.7205387205387  C 0.212121212121212 26.2334455667789  0 25.641975308642  0 24.9461279461279  C 0 24.2502805836139  0.212121212121212 23.658810325477  0.636363636363636 23.1717171717172  L 7.31818181818182 15.5  L 0.636363636363636 7.82828282828283  C 0.212121212121212 7.34118967452301  0 6.74971941638608  0 6.05387205387205  C 0 5.35802469135802  0.212121212121212 4.7665544332211  0.636363636363636 4.27946127946128  L 3.72727272727273 0.730639730639731  C 4.15151515151515 0.243546576879909  4.66666666666667 0  5.27272727272727 0  C 5.87878787878788 0  6.39393939393939 0.243546576879909  6.81818181818182 0.730639730639731  L 13.5 8.4023569023569  L 20.1818181818182 0.730639730639731  C 20.6060606060606 0.243546576879909  21.1212121212121 0  21.7272727272727 0  C 22.3333333333333 0  22.8484848484849 0.243546576879909  23.2727272727273 0.730639730639731  L 26.3636363636364 4.27946127946128  C 26.7878787878788 4.7665544332211  27 5.35802469135802  27 6.05387205387205  C 27 6.74971941638608  26.7878787878788 7.34118967452301  26.3636363636364 7.82828282828283  L 19.6818181818182 15.5  L 26.3636363636364 23.1717171717172  Z " fill-rule="nonzero" fill="#000000" stroke="none" transform="matrix(1 0 0 1 540 1195 )" />
  </g>
</svg>