<?xml version="1.0" encoding="utf-8"?>
<svg version="1.1" xmlns:xlink="http://www.w3.org/1999/xlink" width="41px" height="30px" xmlns="http://www.w3.org/2000/svg">
  <g transform="matrix(1 0 0 1 -592 -295 )">
    <path d="M 592 295  L 633 295  L 633 325  L 592 325  L 592 295  " fill-rule="nonzero" fill="#cccccc" stroke="none" />
    <path d="M 594 297  L 631 297  L 631 323  L 594 323  L 594 297  " fill-rule="nonzero" fill="#ffffff" stroke="none" />
    <path d="M 615.57 304  C 614.31 304  613.32 303.01  613.32 301.75  C 613.32 300.49  614.31 299.5  615.57 299.5  C 616.83 299.5  617.82 300.49  617.82 301.75  C 617.82 303.01  616.83 304  615.57 304  " fill-rule="nonzero" fill="#cccccc" stroke="none" />
    <path d="M 595 322  L 595 308.8  L 603.75 302.8  L 616 311.463414634146  L 623 306.4  L 630 311.463414634146  L 630 322  L 595 322  " fill-rule="nonzero" fill="#169bd5" stroke="none" />
  </g>
</svg>